<svg xmlns="http://www.w3.org/2000/svg" xmlns:xlink="http://www.w3.org/1999/xlink"><symbol viewBox="0 0 42 42" id="arrow-left" xmlns="http://www.w3.org/2000/svg"><circle cx="21.383" cy="20.945" r="18.968"/></symbol><symbol viewBox="0 0 32 32" id="arrow-up" xmlns="http://www.w3.org/2000/svg"><path d="M.256 23.481a1.063 1.063 0 001.813.75l14.119-14.119 13.913 13.912c.413.413 1.087.413 1.5 0s.413-1.087 0-1.5L16.938 7.855a1.065 1.065 0 00-1.5 0L.569 22.724a1.051 1.051 0 00-.313.756z"/></symbol><symbol viewBox="0 0 20 39" id="auth-fb" xmlns="http://www.w3.org/2000/svg"><path d="M12.983 38.758V21.19h5.894l.884-6.848h-6.778V9.97c0-1.982.548-3.333 3.394-3.333L20 6.636V.51C19.373.43 17.222.242 14.719.242c-5.228 0-8.807 3.191-8.807 9.05v5.05H0v6.848h5.912v17.568h7.07z"/></symbol><symbol viewBox="0 0 32 33" id="auth-google" xmlns="http://www.w3.org/2000/svg"><path d="M0 16.5C0 7.678 7.178.5 16 .5c3.563 0 6.936 1.146 9.753 3.315l-3.718 4.83A9.809 9.809 0 0016 6.595c-5.461 0-9.905 4.444-9.905 9.905 0 5.462 4.444 9.905 9.905 9.905 4.399 0 8.137-2.882 9.425-6.857H16v-6.096h16V16.5c0 8.822-7.178 16-16 16s-16-7.178-16-16z"/></symbol><symbol viewBox="0 0 26 41" id="auth-ok" xmlns="http://www.w3.org/2000/svg"><path d="M.868 21.97c-1.021 2.008.139 2.968 2.786 4.608 2.25 1.39 5.359 1.899 7.356 2.102l-7.87 7.57c-2.29 2.195 1.397 5.717 3.686 3.569l6.196-5.976c2.372 2.282 4.645 4.469 6.196 5.984 2.29 2.157 5.976-1.335 3.71-3.569-.17-.162-8.396-8.053-7.894-7.57 2.022-.203 5.084-.741 7.307-2.101l-.001-.002c2.647-1.649 3.807-2.607 2.8-4.616-.608-1.14-2.248-2.093-4.432-.445 0 0-2.949 2.259-7.705 2.259-4.757 0-7.704-2.259-7.704-2.259-2.182-1.657-3.829-.695-4.43.445z"/><path d="M13 20.738c5.798 0 10.532-4.531 10.532-10.108C23.532 5.029 18.798.498 13 .498 7.2.498 2.467 5.028 2.467 10.63 2.467 16.206 7.2 20.738 13 20.738zM13 5.63c2.849 0 5.172 2.236 5.172 5 0 2.74-2.323 4.975-5.172 4.975-2.849 0-5.172-2.235-5.172-4.976C7.826 7.864 10.15 5.63 13 5.63z"/></symbol><symbol viewBox="0 0 36 23" id="auth-vk" xmlns="http://www.w3.org/2000/svg"><path d="M19.563 22.42C7.605 22.42.784 14.222.5.58h5.99c.197 10.013 4.613 14.254 8.11 15.128V.58h5.64v8.635c3.455-.371 7.084-4.306 8.308-8.635h5.64c-.94 5.334-4.875 9.27-7.673 10.887 2.798 1.312 7.28 4.744 8.985 10.953h-6.209c-1.333-4.154-4.656-7.368-9.05-7.805v7.805h-.678z"/></symbol><symbol viewBox="0 0 29 30" id="boiler" xmlns="http://www.w3.org/2000/svg"><path fill-rule="evenodd" clip-rule="evenodd" d="M14.533.572c-.114.114-.167.224-.167.346 0 .24-.073.366-.444.77-.43.469-.599.853-.599 1.37 0 .52.166.887.638 1.413.542.605.54.807-.022 1.45-.433.495-.523.654-.599 1.055-.097.514.116.844.544.844.214 0 .482-.285.482-.513 0-.239.073-.365.445-.77.432-.47.598-.851.598-1.375 0-.522-.16-.866-.657-1.416-.34-.377-.357-.41-.357-.687 0-.279.017-.311.392-.742.456-.525.603-.822.614-1.24.009-.332-.076-.517-.28-.61-.228-.104-.413-.07-.588.105zm-3.62 2.056c-.213.13-.272.307-.223.667.056.406.222.715.62 1.15.554.605.554.864-.004 1.461-.407.437-.58.78-.621 1.227-.03.32-.021.348.143.513.185.186.385.222.599.108.178-.096.254-.217.298-.476.051-.305.098-.384.454-.772.416-.454.55-.737.58-1.224.036-.554-.118-.949-.551-1.415-.38-.41-.43-.496-.485-.823a.594.594 0 00-.21-.385c-.204-.172-.356-.18-.6-.03zm5.348-.055c-.228.092-.32.31-.288.676.038.417.204.745.582 1.146.372.394.428.502.428.82 0 .235-.03.288-.395.69-.628.694-.814 1.396-.463 1.748.34.34.814.123.886-.406.034-.248.088-.338.41-.69.495-.542.612-.807.612-1.39 0-.578-.11-.826-.614-1.388-.326-.362-.382-.457-.414-.7-.058-.438-.377-.654-.744-.506zM2.914 9.111c-.135.134-.15.193-.15.56 0 .385-.01.419-.179.576-.34.32-.84.996-1.04 1.408-.26.534-.374.992-.374 1.507 0 .56.086.93.344 1.489l.219.472-.275.612c-.583 1.298-.742 1.978-.783 3.334-.035 1.16.028 1.805.27 2.768 1.008 4.014 4.398 6.668 9.553 7.48 1.31.206 2.096.258 3.867.258 1.84 0 2.676-.06 4.014-.284 5.108-.857 8.406-3.47 9.407-7.454.242-.963.305-1.609.27-2.768-.041-1.356-.2-2.036-.784-3.335l-.275-.613.194-.414c.5-1.062.499-2.019-.005-3.052-.2-.412-.7-1.088-1.04-1.408-.168-.157-.178-.191-.178-.576 0-.367-.016-.426-.15-.56l-.15-.15H3.064l-.15.15zm21.975 1.204c0 .18.016.424.036.542l.035.214h-1.149c-.679 0-1.193.024-1.258.059-.166.089-.294.378-.252.571a.58.58 0 00.182.281c.135.107.23.115 1.351.115h1.205l.151.732c.083.403.252 1.045.374 1.429l.222.696-.14.167c-.233.279-.963.837-1.53 1.172-1.742 1.028-4.171 1.73-7.133 2.06-1.226.136-4.007.136-5.233 0-2.95-.329-5.399-1.036-7.133-2.06-.584-.344-1.285-.88-1.521-1.16l-.15-.179.223-.696c.122-.383.29-1.026.373-1.429l.151-.732H20.944l.12-.128a.759.759 0 00.156-.279c.044-.177-.09-.473-.253-.56-.074-.04-2.902-.06-8.652-.06H3.773l.035-.213c.02-.118.035-.362.036-.542v-.328h21.044v.328zm-22.382 2.29c-.08.381-.167.75-.193.82-.088.237-.132-.2-.06-.596.06-.34.322-.996.375-.943.013.013-.042.337-.122.718zm23.803-.354c.144.322.237.853.19 1.097-.033.178-.041.186-.082.075-.046-.124-.336-1.461-.335-1.54.002-.068.112.11.227.368zM3.93 17.114c1.963 1.186 4.689 2 7.668 2.29.475.045.72.092.72.136 0 .037.078.223.173.413.198.398.54.737.974.966.277.147.356.16.901.16s.624-.013.901-.16c.434-.229.776-.568.975-.966.094-.19.172-.375.172-.41 0-.041.325-.1.895-.16 3.653-.393 6.831-1.527 8.618-3.078l.327-.285.146.33c.535 1.215.73 2.459.597 3.83-.306 3.16-1.98 5.491-4.969 6.915-2.06.982-4.453 1.428-7.658 1.427-1.482 0-2.273-.048-3.388-.205-5.543-.782-8.813-3.655-9.245-8.124-.134-1.39.055-2.617.593-3.837l.143-.324.501.403c.275.222.705.528.956.679zm11.29 2.511c-.152.285-.652.495-1.02.43-.24-.044-.6-.267-.684-.425-.058-.107-.033-.11.85-.11.868 0 .907.005.854.105z"/></symbol><symbol viewBox="0 0 30 30" id="box" xmlns="http://www.w3.org/2000/svg"><path fill-rule="evenodd" clip-rule="evenodd" d="M6.628 2.677C3.554 4.119.993 5.353.936 5.419c-.097.112-.103.51-.103 6.55 0 6.044.006 6.439.103 6.548.102.114 11.284 5.371 11.426 5.371.092 0 2.264-1.01 2.487-1.156.128-.084.161-.15.161-.322 0-.223-.104-.36-.324-.425-.08-.023-.413.099-.996.364-.482.22-.885.398-.896.398-.01 0-.019-2.613-.019-5.807v-5.807l1.178-.551c.95-.444 1.189-.58 1.235-.698.113-.286-.088-.594-.388-.594-.068 0-.647.244-1.284.542l-1.16.543-3.305-1.55a3229.821 3229.821 0 00-5.798-2.71l-.962-.45 1.681-.785 1.681-.785 5.326 2.492 5.326 2.492V13.344l.144.14c.08.076.2.14.266.14.198 0 3.003-1.324 3.08-1.453.047-.08.078-.778.098-2.25l.03-2.133 1.5-.703c.825-.386 1.52-.703 1.544-.703.024 0 .044 1.796.044 3.991 0 3.916.002 3.994.117 4.106.176.17.49.152.643-.036.121-.15.122-.186.121-4.491 0-3.347-.017-4.373-.074-4.48-.057-.111-1.262-.698-5.66-2.757C15.083 1.275 12.49.089 12.392.077c-.139-.018-1.383.544-5.765 2.6zm10.582.546c2.656 1.243 4.916 2.302 5.021 2.353l.19.095-1.385.644-1.387.645-.245-.114a7242.853 7242.853 0 00-7.29-3.415c-1.383-.646-2.508-1.181-2.5-1.188.024-.022 2.719-1.277 2.742-1.278.013 0 2.197 1.015 4.854 2.258zm-3.663 1.832c2.73 1.279 4.971 2.346 4.981 2.372.01.027-.388.24-.883.475l-.901.426-1.794-.838-2.557-1.194c-1.128-.526-2.335-1.092-3.53-1.654-.582-.274-1.31-.614-1.618-.756l-.559-.258.942-.444.948-.448c.004-.003 2.24 1.041 4.97 2.32zm-6.75 3.668c2.754 1.288 5.027 2.361 5.052 2.384.024.023.037 2.65.03 5.836l-.016 5.794-3.795-1.777-5.074-2.373-1.278-.596v-5.805c0-3.192.017-5.805.037-5.805.02 0 2.29 1.054 5.044 2.342zm12.214 1.242v1.702l-.88.408c-.484.224-.894.408-.912.408-.018 0-.032-.768-.032-1.707V9.069l.838-.398c.461-.219.872-.4.912-.403.057-.004.074.37.074 1.697zM2.903 13.968c-.167.15-.174.474-.013.608.204.17 3.261 1.571 3.432 1.573.35.005.55-.47.295-.702-.157-.142-3.304-1.595-3.456-1.595a.466.466 0 00-.258.116zm18.683 1.764c-1.472.301-2.577.89-3.634 1.936-.923.912-1.462 1.826-1.81 3.066-.145.52-.156.64-.155 1.7.001 1.064.012 1.178.163 1.71.693 2.454 2.653 4.31 5.184 4.91a7.173 7.173 0 006.754-1.972c2.63-2.71 2.535-6.947-.214-9.544a7.226 7.226 0 00-3.677-1.835c-.695-.117-1.963-.103-2.61.03zm-18.65.13c-.156.114-.22.347-.142.504.084.167 1.785 1.021 2.033 1.021.313 0 .51-.354.354-.637-.073-.132-1.813-.96-2.018-.96a.448.448 0 00-.228.072zm21.556.773a6.31 6.31 0 013.415 2.235c.403.514.842 1.404 1.028 2.081.138.506.156.674.154 1.483 0 .803-.02.98-.156 1.479-.578 2.102-2.292 3.756-4.445 4.288-3.275.809-6.573-1.085-7.492-4.303-.105-.369-.125-.6-.128-1.464-.004-1.192.084-1.618.522-2.516.349-.718.675-1.169 1.233-1.706.933-.9 1.998-1.434 3.388-1.7.08-.015.57-.02 1.088-.011.725.012 1.045.043 1.393.134zm-1.834.923c-.113.11-.118.19-.118 1.85v1.737l-.208.096c-.652.3-.918 1.124-.578 1.786.432.84 1.598.98 2.242.27.1-.11.198-.252.219-.315.037-.113.09-.116 1.863-.132l1.826-.017.112-.134c.146-.175.143-.355-.01-.543l-.121-.15h-3.562l-.18-.279a1.371 1.371 0 00-.45-.433l-.27-.154v-1.698c0-1.63-.005-1.703-.122-1.848a.452.452 0 00-.643-.036zm.676 4.573c.123.141.15.219.122.352-.045.222-.18.363-.39.408-.468.1-.782-.47-.44-.802.215-.208.506-.191.708.042z"/></symbol><symbol viewBox="0 0 31 25" id="chat" xmlns="http://www.w3.org/2000/svg"><path fill-rule="evenodd" clip-rule="evenodd" d="M2.118.626A1.94 1.94 0 00.955 1.642l-.122.262V14.589l.122.262c.168.359.5.709.845.89.282.147.317.151 1.47.169l1.183.018.017 1.663c.015 1.584.022 1.67.136 1.822.3.402.74.519 1.152.305.117-.06 1.047-.94 2.067-1.953L9.68 15.92h4.864c4.73 0 4.872-.003 5.17-.114.436-.161.745-.447.966-.892l.188-.379V1.958l-.188-.379c-.221-.445-.53-.73-.966-.893-.302-.112-.428-.113-8.88-.108C6.118.58 2.196.602 2.118.626zm17.39.89c.11.052.268.196.351.321l.152.228V14.42l-.134.214a1.062 1.062 0 01-.354.326c-.214.109-.36.112-5.164.112-3.495 0-4.98.018-5.068.062-.068.035-.991.92-2.05 1.968l-1.927 1.905v-1.82c0-1.707-.007-1.828-.11-1.953-.107-.133-.12-.134-1.526-.162-1.548-.031-1.565-.035-1.83-.379l-.159-.207V2.008l.165-.214c.09-.117.244-.248.342-.29.148-.064 1.641-.078 8.646-.08 7.766-.002 8.484.006 8.666.092zm-9.314 2.517a4.178 4.178 0 00-.753.28c-.89.426-1.504 1.226-1.708 2.223-.104.508-.07.792.107.916.278.193.67.002.67-.325 0-.531.271-1.16.69-1.599 1.083-1.136 3.015-.833 3.718.584.177.356.187.41.187 1.002 0 .592-.01.645-.187 1.001a2.39 2.39 0 01-1.279 1.154c-.8.303-1.19.733-1.208 1.331-.01.336.124.506.4.506.245 0 .392-.147.439-.439.036-.226.295-.523.455-.524.138 0 .82-.356 1.116-.582.911-.697 1.366-2.078 1.064-3.229a3.196 3.196 0 00-2.017-2.176c-.437-.159-1.23-.216-1.694-.123zm11.798 1.2c-.177.187-.166.453.025.602.148.116.2.118 3.296.119h3.146l.228.127c.151.084.272.213.358.381l.129.254-.015 6.155c-.015 6.146-.015 6.156-.135 6.315a1.517 1.517 0 01-.308.288c-.181.122-.236.127-1.456.127-1.308 0-1.581.037-1.685.229-.033.061-.056.834-.056 1.891 0 .983-.019 1.788-.042 1.788-.024 0-.923-.873-1.998-1.94l-1.956-1.94-5.065-.028-5.065-.028-.187-.132c-.338-.24-.381-.39-.403-1.407-.021-.995-.037-1.043-.365-1.124-.127-.032-.189-.006-.334.138l-.179.178.026.918c.03 1.057.095 1.307.449 1.705.129.146.375.33.575.428l.35.174h9.826l1.913 1.894c1.052 1.041 1.985 1.92 2.074 1.954.4.149.814.014 1.09-.355.113-.153.12-.238.136-1.827l.016-1.666h1.1c.861 0 1.16-.02 1.37-.091.366-.124.843-.567 1.014-.942L30 19.12V6.434l-.159-.32a1.9 1.9 0 00-.89-.861c-.258-.119-.331-.122-3.549-.137L22.119 5.1l-.126.133zM10.561 12.29c-.146.144-.172.206-.14.332.021.085.08.199.129.253.123.136.442.128.586-.014.143-.142.15-.46.014-.582a.709.709 0 00-.255-.127c-.127-.032-.19-.006-.334.138z"/></symbol><symbol viewBox="0 0 95 33" id="discount-bg" xmlns="http://www.w3.org/2000/svg"><path fill-rule="evenodd" clip-rule="evenodd" d="M69.924.726a2.37 2.37 0 00-.094.212c-.033.083-.178.104-.321.044-.307-.126-.623.293-.469.622.156.332-.226.489-.497.204-.271-.284-.33-.294-.393-.066-.028.104-.11.174-.18.155-.07-.018-.158.075-.194.208-.105.383-.315.601-.526.546-.156-.041-.216.075-.303.58-.129.753-.339 1.002-.753.894-.454-.12-.904-.474-.85-.67.077-.282-.304-.739-.693-.832-.2-.048-.487-.116-.64-.151a.697.697 0 00-.485.08.597.597 0 01-.429.087c-.317-.083-.449.03-.33.284.084.177.03.25-.275.375-.209.084-.468.132-.577.105-.267-.066-.845.507-.813.806.018.169-.023.207-.138.13-.104-.07-.112-.253-.024-.497.149-.407.162-.396-.808-.691a1.038 1.038 0 01-.391-.226c-.16-.174-.571-.027-.642.23-.027.1-.18.138-.366.09-.241-.064-.392.008-.616.292-.364.462-.594.542-.788.274-.163-.225-.247-.203-.568.149-.298.328-.648.34-.436.015.095-.144.104-.258.023-.28-.076-.019-.098-.178-.05-.353s.004-.377-.097-.449c-.234-.167-1.012.335-1.014.654 0 .127-.09.24-.198.25a.313.313 0 00-.25.213.204.204 0 01-.247.141c-.108-.028-.3.073-.428.225-.127.152-.31.255-.405.23-.096-.025-.308-.005-.473.044-.26.078-.325.034-.507-.335-.114-.233-.302-.45-.418-.48-.27-.07-.244-.14.129-.352.387-.219.613-1.124.422-1.692-.167-.497-.214-.51-.644-.17-.229.18-.402.481-.523.907-.173.61-.205.642-.718.736-.527.096-1.083.54-1.064.85.005.086.1.148.213.136.124-.013.181.057.148.18-.064.234-.928.378-1.45.241-.2-.052-.583-.035-.854.039-.481.13-.847.07-.984-.163-.038-.065.067-.117.233-.116.323.002.377-.059.287-.323-.068-.2-.546-.301-.832-.176-.115.05-.33.083-.478.072-.196-.014-.297.08-.37.345-.08.29-.19.375-.549.42-.373.047-.466.02-.548-.155-.069-.145-.05-.226.057-.257.25-.074.258-.33.016-.583-.191-.2-.27-.213-.528-.083-.32.161-.325.15-.178-.49.066-.288.162-.405.333-.404.307.002.33-.102.152-.696-.092-.306-.232-.491-.378-.501-.192-.014-.274.13-.468.829-.166.595-.188.858-.075.887.266.07-.166.799-.589.996-.207.096-.403.272-.436.39-.128.468-.638-.129-.517-.605.03-.118-.027-.293-.127-.388-.16-.153-.144-.18.15-.248l.33-.076-.192-.35c-.105-.193-.174-.415-.153-.494.022-.078.012-.304-.022-.502-.064-.377-.499-.608-.581-.308-.026.096-.148.185-.27.198-.12.013-.202.082-.18.154.055.179-.387.363-.525.218-.062-.064-.129-.054-.15.022-.02.075.145.319.368.542l.405.404-.482-.085c-.6-.106-.94.088-.774.442.097.207.076.255-.136.308-.138.034-.274.144-.301.245a.197.197 0 01-.242.131c-.106-.028-.207 0-.224.062-.016.062.047.167.142.235.325.23.07.501-.57.606-.352.058-.7.09-.771.07-.072-.018-.224.063-.337.181-.24.25-.532.197-.917-.166-.192-.181-.331-.232-.47-.17-.142.065-.182.037-.144-.1.028-.103.157-.236.287-.294.313-.141.413-.552.175-.721-.105-.075-.36-.093-.569-.041-.32.08-.398.177-.506.63-.141.591-.185.619-.4.254-.114-.193-.099-.305.069-.504.184-.219.177-.285-.052-.47-.177-.143-.255-.37-.231-.674.02-.253-.037-.51-.126-.574-.265-.188-.608-.09-.61.174 0 .136-.138.311-.312.399-.21.105-.312.256-.316.463-.003.22-.06.293-.2.257-.107-.028-.179-.108-.16-.177.063-.23-.244-.203-.382.034-.075.129-.187.22-.25.204-.062-.016-.143.08-.18.214-.09.33-.256.358-.485.078-.141-.172-.147-.394-.023-.849.093-.339.235-.717.315-.84.131-.2.093-.233-.349-.3-.272-.043-.592-.006-.712.082-.182.134-.174.217.054.518.26.345.259.368-.026.602-.374.307-.399.4-.117.45.124.023.217.153.209.292-.012.199-.068.222-.266.111-.138-.077-.265-.087-.283-.023-.017.065-.193.133-.39.153-.349.035-.354.045-.23.416.115.34.102.394-.12.52-.36.204-.736-.216-.61-.68.128-.468-.275-.908-.856-.934-.289-.013-.449-.08-.487-.204-.09-.297.12-.465.411-.327.36.17 1.033.092 1.093-.127.104-.38-.191-.553-.956-.562-.402-.004-.77.051-.82.124-.049.073-.133.086-.187.03-.054-.056-.113-.048-.13.018-.019.066.044.175.14.243.33.235-.164 1.11-.785 1.387-.312.139-.318.157-.2.575.14.488.12.719-.037.452a.343.343 0 00-.3-.159c-.111.012-.205-.1-.22-.265-.037-.388-.528-.154-.933.443-.074.11-.218.178-.32.152-.101-.027-.373.18-.604.46-.386.47-.444.495-.734.324-.173-.103-.745-.307-1.272-.455-.527-.149-1.047-.342-1.155-.43a.681.681 0 00-.43-.136c-.287.03-.98-.398-1.354-.834-.344-.402-.444-.432-.463-.137-.023.356-.527.612-.83.423-.176-.11-.333-.103-.51.021-.25.176-.253.175-.119-.03.219-.335.085-.515-.256-.344-.214.108-.27.193-.184.283.227.235-.136.39-.501.213-.31-.15-.36-.134-.435.14-.06.224-.002.352.215.47.387.212.332.413-.083.304-.327-.086-.44.063-.566.75-.07.373-.378.448-.507.123-.082-.207-.164-.247-.399-.193-.163.037-.523.008-.802-.065-.278-.073-.594-.071-.703.004a.431.431 0 01-.415.014c-.159-.088-.265-.04-.388.176-.128.224-.284.289-.639.262-.258-.02-.545-.089-.637-.154-.42-.3-.538.68-.129 1.076.163.157.156.213-.054.408-.206.191-.221.268-.103.494.109.207.097.293-.052.378-.296.167-.535.05-.46-.226.121-.44-.286-.234-.703.354-.385.543-.5.6-.875.445-.095-.04-.222-.029-.282.024-.178.156-1.38-.038-1.331-.215.022-.082-.18.002-.45.188-.389.268-.5.425-.534.764-.038.361-.083.415-.302.358-.141-.037-.86.055-1.596.205-1.182.24-1.372.245-1.626.04-.242-.195-.284-.2-.266-.027.014.127-.082.21-.25.218-.38.017-.555.677-.234.878.129.08.294.129.368.107.073-.021.185.07.248.204.1.213.076.228-.188.118-.251-.105-.326-.07-.438.207-.124.308-.104.335.251.358.407.026.486.176.566 1.079.025.293.098.386.295.377.184-.009.26.066.26.253-.003.343-.144.417-.322.17-.11-.152-.177-.163-.3-.05-.251.232-.25.916.003 1.305.127.197.208.445.178.552-.029.107.018.22.103.251l.345.124c.191.069.157.231-.2.942-.197.391-.109.532.218.347.13-.073.23.025.363.358.231.575.465.747.73.538.177-.139.22-.131.309.056.082.174.01.253-.365.397-.544.21-1.79.065-1.73-.202.019-.089-.052-.048-.158.09-.111.145-.304.224-.452.185-.283-.074-.609.353-.567.745.022.203.053.213.298.095.469-.224 1.214-.096 1.39.24.143.274.13.303-.247.516-.621.35-.45.593.52.736.438.064.982.08 1.207.036.487-.096 1.572-.067 1.518.041-.02.042-.036.25-.034.462.005.428-.222.577-.577.379-.12-.067-.265-.04-.341.061-.073.099-.25.148-.393.11-.192-.05-.283.014-.346.246-.065.235-.019.332.181.384.235.062.196.11-.312.387-.319.175-.587.344-.596.376-.023.083.402.855.482.876.037.01.141-.1.232-.242.1-.157.174-.19.188-.085a.278.278 0 00.185.217c.26.068 1.091-.131 1.208-.29.06-.078.202-.09.317-.027a.44.44 0 00.422-.03c.117-.082.294-.09.394-.02.1.072.268.062.374-.021.285-.222 1.041-.146 1.068.107.015.132-.06.18-.215.14-.406-.107-.65.171-.726.826-.044.378-.139.646-.26.73-.258.179-.058.376.39.383l.341.005-.404.322c-.287.227-.363.35-.26.418.25.167.102.312-.165.163-.165-.092-.316-.079-.431.037-.098.098-.226.128-.285.066-.06-.061-.33.03-.603.205-.489.314-.491.32-.244.49.15.104.333.136.457.08.114-.051.312-.028.438.051.127.08.284.096.35.036.064-.06.234-.079.375-.042.142.037.511-.085.82-.272l.564-.34.275.506c.152.279.223.555.158.615-.078.072.06.127.403.162.447.046.475.063.194.12-.18.037-.355.165-.388.286-.101.37.604.71.96.463.113-.078.363-.073.598.014l.497.181c.158.056-.026.514-.216.537-.136.017-.142.063-.028.196.126.146.114.199-.078.332-.18.125-.204.199-.112.351.09.151.168.152.357.004.157-.122.314-.138.443-.046.184.13.187.115.035-.174-.15-.286-.144-.317.067-.339a.716.716 0 01.42.11c.245.175.974.062 1.096-.17a.652.652 0 00.027-.415c-.096-.336.145-.598.604-.657.217-.028.431-.034.475-.012.157.075.43-.21.375-.392-.088-.287-1.03-.523-1.356-.34-.3.17-.297.17-.791.095-1.242-.188-1.872-.196-1.918-.027-.018.064-.155.085-.305.046-.227-.06-.237-.096-.06-.218a.597.597 0 01.426-.09.603.603 0 00.389-.043.77.77 0 01.36-.086c.103.007.5-.037.881-.096.382-.06.75-.094.816-.076.067.017.353.001.635-.036.424-.056.494-.106.407-.291-.145-.31.095-.519.289-.252.169.234.896.417 1.802.454.767.03 1.022.286.4.4-.467.085-.706.474-.48.785.115.16.307.216.842.243.826.04 1.192.292 1.016.697-.149.345.16.488.803.373.395-.071.55-.045.735.125.13.118.311.206.405.195.126-.016.13-.035.012-.073-.298-.099-.063-.432.247-.35.165.043.465 0 .666-.095.312-.149.357-.225.308-.516-.046-.267-.01-.363.168-.443.124-.056.25-.186.278-.29.037-.135.141-.144.379-.031.254.12.432.091.793-.13.44-.268.485-.269.836-.012.205.149.387.29.407.314.019.023-.138.177-.35.341l-.383.3.198.336c.108.184.27.352.36.373.148.034.806-.425 1.486-1.037.151-.136.346-.228.433-.205.087.023.179-.085.204-.24.034-.22.146-.286.496-.295.541-.013.666.135.355.42-.196.179-.197.292-.007.797.24.636.502.823.608.434.037-.134.149-.268.248-.297.318-.094 1.07.08 1.215.28.11.152.151.15.195-.011.03-.112.114-.189.184-.17a.13.13 0 01.094.16c-.019.068.052.148.158.175.227.06.27-.052.218-.557-.038-.364-.03-.369.34-.19.569.275 1.06.249 1.062-.057 0-.138.061-.269.134-.29.073-.022.093-.166.045-.32-.072-.232-.028-.317.26-.498.349-.22.765-.618.808-.775.013-.047-.203-.107-.48-.133-1.09-.104-1.365-.16-1.333-.276.018-.066.092-.104.165-.085.073.019.297-.018.498-.083.302-.098.351-.164.283-.383-.066-.209-.027-.298.178-.413.312-.177.546-.137.507.085l-.062.354c-.097.546 1.416.444 1.91-.13.26-.3.455-.39 1.136-.524.057-.01.248.226.426.527.226.383.274.59.162.691-.3.271-.257.457.132.559.307.08.417.039.559-.211.13-.23.127-.372-.013-.542-.158-.192-.156-.222.014-.178.111.03.26-.022.328-.115.145-.195.26-.182.484.056.127.134.118.192-.043.283-.329.186-.282.308.16.422.615.158.856.054.657-.283-.146-.248-.137-.282.11-.439.182-.115.387-.12.638-.013.347.146.48.424.165.341-.095-.025-.105.045-.029.208a.956.956 0 01.056.52c-.195.898-.18.962.206.843.126-.039.185-.205.2-.552.016-.395.058-.486.205-.448.101.027.155.117.12.2-.21.499-.189.828.066 1.062.244.225.304.232.529.06.139-.105.28-.281.311-.39.032-.108.24-.236.46-.283.221-.047.467-.144.548-.216.08-.071.25-.102.38-.069a.62.62 0 00.446-.085c.116-.08.344-.111.507-.068.32.083.742-.356.496-.515-.073-.047-.118-.14-.1-.207.054-.194.452.047.574.347.079.194.212.278.448.281.248.004.378.097.5.357.092.193.149.423.128.511-.024.096.128.204.377.27l.856.22c.28.071.523.043.67-.077.127-.105.41-.178.63-.165.45.029.773-.328.61-.676-.057-.121-.052-.291.012-.377.136-.184.93-.124.991.075.023.076.215.148.426.161.211.014.403.088.427.166.024.078-.066.113-.2.078s-.344.055-.467.202c-.2.237-.191.283.08.43.17.094.4.121.527.064.17-.076.294-.046.504.123.153.124.291.176.308.116.052-.19.484-.166.63.035.16.223.197.21.422-.141.136-.211.117-.273-.099-.33-.158-.04-.243-.15-.21-.27.041-.151.129-.163.343-.047.186.102.41.103.636.005.286-.125.336-.205.28-.443a.79.79 0 01.064-.513c.143-.236 1.467-.546 1.874-.439.24.063.408-.053.703-.489.146-.215.158-.208.192.115.02.19.09.45.156.58.22.44.162.859-.137.972-.226.086-.256.147-.168.336.08.171.316.274.917.398.73.152.821.141.933-.111a1.05 1.05 0 01.407-.428c.157-.083.4-.424.545-.766.28-.659.339-.684.784-.324.26.21.341.199.88-.116.425-.248.623-.299.695-.176.056.094.236.207.4.25.23.06.292.17.271.487-.03.472.196.688.596.569.189-.057.268-.04.243.05-.057.21.617-.078.737-.315.281-.56.38-.997.347-1.539-.025-.425.015-.62.141-.692.127-.072.188.004.215.269.021.203.096.384.165.402.07.018.159.164.197.324.054.227.01.324-.195.44-.245.138-.246.181-.024.558.23.39.252.4.475.223.207-.162.264-.155.476.063.216.223.273.224.574.013.314-.22.325-.252.182-.525-.143-.274-.137-.286.117-.22.357.094.491-.05.712-.766.115-.374.295-.668.476-.783.282-.178.278-.19-.114-.36-.251-.107-.5-.128-.656-.053-.355.172-.393.135-.279-.282.09-.33.157-.364.606-.323.313.03.6.138.758.287.14.132.29.24.335.24.044 0 .218.21.385.467.168.257.417.537.554.623.347.217 1.508.196 1.378-.026-.137-.233-.089-.338.168-.364.121-.013.175.019.12.07-.056.05-.039.146.037.212.514.442.774.812.718 1.02-.043.154.034.282.211.357.281.117.437-.045.24-.25-.158-.165-.015-.553.247-.671.189-.085.228-.04.223.254-.005.306.046.358.353.363.47.007.508-.023.378-.301-.09-.193-.075-.225.091-.181.36.094.98-.317.95-.63-.018-.19.076-.354.29-.507.351-.25.575-.132.472.247-.039.14.02.267.14.298.13.034.16.116.08.223-.16.216-.123.596.053.544.074-.022.15.114.17.301.053.512.212.599.885.48.349-.06.747-.042.928.043.174.083.373.098.441.035.069-.063.23-.087.358-.053a.616.616 0 00.443-.084c.115-.08.256-.098.312-.04.056.059.202.027.325-.07.18-.141.352-.129.88.065.575.21.706.212 1.053.016.218-.123.404-.317.414-.431.01-.114.093-.213.184-.22.09-.006.147.124.127.29-.026.206.043.314.219.344.314.054.888.55.84.725-.06.216.946.235 1.265.024.23-.15.382-.152.69-.004.894.43 1.585.61 1.636.425.027-.099.208-.195.403-.215.391-.039.466-.147.297-.434-.147-.249-.522-.344-.67-.169-.063.076-.033-.036.067-.248.23-.484.173-.74-.134-.601-.17.076-.257.05-.375-.112-.123-.171-.22-.196-.5-.132-.192.044-.407.019-.478-.055-.07-.074-.202-.07-.293.008-.13.113-.199.056-.334-.272-.2-.486-.504-.617-.602-.26-.081.295-.288.284-.32-.016a.324.324 0 00-.222-.26c-.148-.039-.2.034-.204.283-.007.435-.246.377-.405-.098-.147-.437-.545-.46-.552-.033-.005.276-.01.274-.166-.063-.234-.5-.515-.507-.568-.014-.02.184-.275.03-.297-.179-.033-.305-.37-.343-.45-.05-.088.325-.295.271-.293-.076.002-.263-.144-.318-1.254-.478-.063-.01-.116.14-.12.33-.003.224-.044.305-.116.23a.3.3 0 01-.073-.255c.02-.077-.023-.257-.098-.4-.126-.24-.045-.25 1.032-.13.643.07 1.549.213 2.012.315 1.083.24 2.769.472 3.356.463.235-.003.24-.017.075-.217-.306-.373-.02-.53.676-.37.357.082.732.124.834.094.103-.03.318.017.48.104.37.203.443-.014.144-.43-.275-.382-.51-.463-.679-.235-.11.15-.142.138-.231-.089-.086-.218-.145-.243-.349-.151a.57.57 0 01-.484-.04c-.131-.083-.324-.125-.427-.094-.294.088-1.068-.104-1.418-.352-.367-.26-.363-.213-.057-.62.236-.313.238-.313.272-.004.045.42.255.449.538.074l.234-.31.056.319c.07.394.379.496.471.157.038-.138.12-.238.183-.222.062.017.112.151.111.299-.002.372.238.4.524.06.232-.276.241-.276.267.002.039.404.358.442.624.074.224-.31.225-.31.236 0 .012.376.279.395.44.032.141-.323.64-.243.553.088-.048.184-.005.181.253-.012.265-.198.407-.202.957-.027.39.125.742.162.89.095.136-.06.316-.06.402 0 .218.156.552.034.487-.177-.03-.097-.18-.177-.335-.178-.376-.002-.71-.322-.554-.531.084-.113.217-.116.41-.01.215.116.301.104.343-.05.031-.113.22-.221.419-.241.47-.047.387-.3-.144-.439-.23-.06-.467-.195-.529-.3-.088-.149-.156-.167-.308-.08-.247.139-.541.067-.49-.121.022-.079-.036-.235-.128-.347-.208-.254.004-.611.44-.742.462-.138 2.341.296 2.368.546.028.258.272.31.337.074.067-.244.191-.207.31.092.071.18.214.247.593.276.534.04.737-.14.29-.257-.206-.054-.235-.119-.123-.268.205-.274.203-.266.134-.777-.04-.298-.207-.576-.481-.8-.31-.251-.386-.395-.291-.544.082-.13.052-.25-.085-.336-.636-.398-.763-.54-.577-.645.314-.177.316-.45.003-.437-.228.01-.262-.044-.192-.303.114-.415.361-.473.584-.136.169.256.189.257.34.025.09-.136.144-.277.123-.314-.022-.037-.384-.094-.805-.127-.42-.032-.81-.105-.864-.162a.145.145 0 00-.2-.008c-.118.109-1.377-.194-1.422-.341-.017-.054.124-.056.312-.004.259.072.37.029.46-.177.065-.15.205-.25.31-.222.137.036.19-.032.18-.236-.012-.242.023-.263.229-.134.192.12.277.09.41-.143.092-.162.266-.34.387-.394.316-.142.322-.308.015-.389-.232-.06-.236-.087-.032-.202a.544.544 0 01.484.007c.145.08.358.078.505-.005.14-.079.327-.093.415-.03.186.133.953-.082.9-.252-.068-.222-.968-.951-1.04-.844-.041.06-.208.046-.373-.032-.197-.093-.343-.082-.428.034-.106.142-.182.133-.402-.045-.318-.256-.3-.414.08-.727.153-.125.258-.287.236-.361-.023-.074.074-.2.215-.28.14-.08.235-.211.21-.293-.055-.178.37-.441.61-.38.093.025.044-.064-.109-.197-.302-.263-1.033-.474-1.435-.415a.43.43 0 01-.388-.15c-.102-.14-.186-.15-.342-.043-.162.113-.249.099-.402-.062-.151-.158-.255-.18-.45-.09-.208.092-.276.076-.366-.088-.087-.158-.073-.205.065-.217.097-.009.213-.152.26-.32.06-.22.153-.285.339-.236.15.04.234.151.201.27-.041.151.029.203.279.207.184.003.353.068.377.146.073.24.454.113.534-.178.042-.152.148-.317.237-.367.108-.06.08-.267-.084-.611-.202-.428-.27-.487-.383-.334-.085.114-.067.256.047.368.138.137.138.172 0 .139-.102-.025-.283-.2-.403-.388-.228-.36-.717-.45-.623-.114.028.1-.043.044-.159-.124-.207-.305-.611-.383-.68-.132-.02.072-.23-.104-.467-.39-.375-.452-.52-.538-1.097-.643a4.582 4.582 0 00-1.237-.037c-.316.046-.73.032-.92-.031-.696-.232-1.2-.35-2.262-.529-.959-.162-1.078-.207-1.028-.39.03-.113-.005-.222-.08-.242-.08-.02-.132.08-.125.237.01.212-.046.257-.25.204-.225-.06-.235-.121-.073-.441.235-.466-.068-.505-.463-.06-.142.16-.338.271-.435.246-.145-.038-.124-.103.12-.372.162-.18.371-.307.464-.283.093.025.226-.031.295-.124.07-.093.208-.148.308-.121.317.083 1.025-1.454.787-1.708-.245-.262-.582-.255-.812.018-.254.302-.736.27-.65-.045.088-.322-.754-.395-1.006-.087-.112.137-.277.23-.366.207-.09-.023-.177.014-.196.083-.02.07.045.147.142.172.097.026.225.15.285.277.182.389-.234.565-.843.358-.507-.173-.511-.181-.353-.621.144-.402.121-.478-.234-.774-.216-.18-.552-.37-.748-.42-.516-.137-1.401-.208-1.587-.129-.089.038-.232-.006-.318-.097-.282-.3-1.057-.425-1.376-.223-.296.187-.77.06-1.03-.279-.113-.145-1.852-.343-2.164-.245-.103.033-.23.014-.283-.04-.053-.055-.389-.073-.747-.04l-.651.06-.493-.837.35-.29c.237-.197.412-.506.538-.95.182-.643.178-.66-.184-.755-.203-.053-.385-.07-.403-.039zm8.137 2.506c-.062.251.148.64.34.628.096-.006.212-.147.258-.314.066-.24.016-.321-.238-.388-.176-.046-.338-.013-.36.074zm-4.606-1.046c-.166.066-.461.08-.656.031-.41-.102-.589.237-.322.606.138.19.203.194.44.028.153-.108.365-.154.471-.102.107.051.295.023.418-.062.187-.13.202-.195.088-.388-.12-.204-.175-.218-.44-.113zm-9.058-1.159c-.17.622-.162.698.085.763.344.09.936-.114.999-.345.05-.184-.542-1.017-.765-1.075-.072-.019-.214.274-.32.657zm24.962 6.318c-.118.067-.33.051-.49-.036-.22-.12-.331-.094-.508.116-.206.245-.194.3.13.599.278.258.421.314.66.26.24-.056.328-.02.417.17.103.219.133.226.326.074.181-.143.245-.133.44.07.188.196.252.212.381.094.098-.089.248-.084.405.014.15.095.264.102.287.02.02-.076.196-.153.39-.173.382-.038.44-.115.336-.442-.09-.285-2.465-.94-2.774-.766zm-2.389.103c-.317.18-.292.374.063.499.396.14.746.01.717-.264-.026-.24-.511-.387-.78-.235zM69.338 2.93a.134.134 0 01-.163.092.13.13 0 01-.093-.159.134.134 0 01.162-.092.13.13 0 01.094.16zm-.804-.012c-.053.213-.296.15-.32-.085-.017-.154.033-.195.163-.13.103.05.174.147.157.215zm12.437 4.35c.077.132-.378.62-.6.644-.141.015-.15-.053-.035-.256.087-.153.13-.323.097-.38-.095-.16-.474.064-.545.324-.042.152-.156.212-.319.17-.221-.059-.225-.1-.031-.332.314-.373 1.247-.484 1.433-.17zm-1.342-.231c-.008.03-.082.075-.165.1-.082.023-.133-.017-.113-.09a.138.138 0 01.165-.1c.07.02.122.06.113.09zm-4.503-.759c-.155.088-.347-.17-.216-.29.078-.072.149-.051.216.063.055.094.056.196 0 .227zm.728-.022a.134.134 0 01-.162.092.13.13 0 01-.094-.16.134.134 0 01.163-.091.13.13 0 01.094.16zM93.18 10.99c-.093.125-.23.152-.37.074-.121-.068-.236-.072-.253-.01-.017.063-.182.2-.366.304-.372.21-.474.608-.178.686.105.027.244-.072.31-.222.13-.3.516-.289.433.013-.088.324.13.247.493-.176.306-.354.333-.435.214-.636-.119-.202-.155-.206-.283-.033zM73.286 5.918c.015.333-.297.403-.804.181-.614-.269-.615-.432-.004-.446.53-.011.8.077.808.265zm.54.21c-.018.068-.095.109-.17.09-.074-.02-.084-.084-.022-.141.063-.058.14-.098.17-.09.032.008.042.071.023.14zm5.204 1.474c.006.09-.081.138-.193.11a.206.206 0 01-.149-.253c.061-.222.327-.11.342.143zm15.436 4.558c-.034.148-.011.185.057.096.062-.08.087-.19.056-.243-.032-.053-.082.013-.113.147zm-.858-.17c-.063.058-.053.122.022.141.075.02.151-.02.17-.09.019-.069.01-.132-.022-.14-.031-.008-.108.032-.17.09zm-4.27-.43c-.152.375-.469.579-.634.407-.144-.15-.032-.329.172-.275.12.031.225-.068.278-.264.048-.173.143-.299.212-.28.07.017.057.203-.028.412zm-29.67-7.968c-.015.052-.154.133-.31.18-.246.073-.265.055-.151-.142.123-.213.517-.245.46-.038zm28.676 8.248c-.17.178-.231.178-.357.005-.136-.188-.126-.22.092-.303a.59.59 0 00.317-.328c.061-.196.08-.181.113.089a.644.644 0 01-.165.537zm-.68-.5c-.065.217-.356.372-.472.25-.09-.091-.044-.162.154-.241.33-.132.354-.132.318-.009zm-1.449-.228c-.05.186-.48.323-.605.193-.078-.082-.024-.16.161-.234.326-.13.487-.115.444.041zm.543.355c-.14.188-.543.148-.489-.048.035-.13.524-.286.582-.187.02.034-.022.14-.093.235zm3.84 3.228c-.082.302-.357.397-.492.168-.071-.12-.038-.214.117-.32.296-.206.456-.142.376.152zm.623.238c-.029.104-.11.174-.18.155-.07-.018-.105-.118-.077-.222.029-.104.11-.173.18-.155.07.019.105.118.077.222zm-.007 1.21c.016.145-.06.187-.245.138-.224-.059-.234-.095-.057-.217.116-.08.226-.142.245-.137.02.005.045.102.058.216zM46.305 4.695c-.277.081-.314.019-.133-.225.105-.141.17-.146.247-.016.076.129.046.194-.114.24zM89.632 15.94c-.058.054-.196.074-.306.045-.163-.043-.162-.08.009-.198.219-.152.481-.017.297.153zm.819.18c.006.09-.107.132-.253.094-.185-.049-.225-.121-.135-.243.143-.193.373-.104.388.15zm4.162 1.08c-.423.195-.766.78-.5.85.189.049.969-.767.879-.92-.027-.045-.197-.013-.379.07zm-5.824-1.423c-.029.103-.11.173-.18.154-.07-.018-.105-.118-.077-.222.028-.103.11-.173.18-.154.07.018.105.118.077.222zm3.674.896c-.063.058-.024.129.086.158.11.029.216-.004.235-.073a.126.126 0 00-.087-.158c-.066-.017-.172.016-.234.073zm.706.186a.13.13 0 00.093.159.134.134 0 00.163-.092.13.13 0 00-.094-.16.134.134 0 00-.162.093zm-5.232-1.238c-.062.057-.171.09-.242.07-.07-.018-.077-.08-.014-.138.062-.057.171-.09.242-.07.07.018.077.08.014.138zm5.749 1.724c-.065.037-.15.185-.187.33-.062.242-.052.248.128.073.21-.204.255-.514.059-.403zM46.308 5.169c.089.189.07.22-.1.176-.114-.03-.185-.14-.156-.243.028-.104.073-.183.1-.176.026.007.097.116.156.243zm36.908 9.617c.025.08-.048.122-.163.091-.114-.03-.156-.101-.094-.159.063-.057.136-.099.163-.092.027.007.07.079.094.16zm-.868-.094c-.02.07-.096.11-.17.09-.075-.02-.085-.082-.023-.14.063-.058.14-.098.17-.09.031.008.041.071.022.14zm7.975 4.257c-.173.16-.35.05-.215-.132.069-.093.17-.123.223-.067a.14.14 0 01-.008.199zm.878.078c-.018.065-.1.138-.182.163-.082.024-.126-.045-.096-.152.03-.108.111-.181.182-.163.07.019.114.087.096.152zm1.595.395c-.093.03-.247.176-.342.324-.159.245-.147.263.133.199.17-.04.338-.182.375-.318.075-.276.07-.282-.166-.205zm-4.075-.7c-.069.092-.148.162-.176.155-.027-.007-.027-.098.001-.201.029-.104.108-.174.176-.156.069.018.068.108 0 .201zm.888.09c-.008.03-.082.075-.164.1-.082.023-.133-.017-.113-.09a.138.138 0 01.164-.1c.07.02.122.06.114.09zm-4.887-.794c-.24.07-.315-.02-.146-.176a.169.169 0 01.234.003c.072.074.04.136-.088.173zm.886.088c.025.081-.049.122-.163.092s-.156-.101-.094-.159c.063-.058.136-.099.163-.092.027.007.07.079.094.16zm.725.115c-.008.031-.083.076-.165.1-.082.024-.133-.016-.113-.09a.137.137 0 01.165-.099c.07.019.121.059.113.09zm-2.51-.284c-.117.066-.179.057-.157-.021.046-.168.238-.277.3-.17.028.045-.037.13-.143.19zM34.5 5.1a.134.134 0 01-.163.092.13.13 0 01-.094-.16.134.134 0 01.163-.092.13.13 0 01.094.16zm-4.065.28a.13.13 0 01-.155.094c-.067-.018-.141-.098-.166-.178-.025-.08.045-.123.155-.094.11.029.185.109.166.178zM18.074 2.808c-.269.082-.595 1.059-.373 1.117.174.046.767-.314.95-.576.237-.34-.124-.68-.577-.54zm9.175 2.657c-.045.164-.227.232-.331.125-.11-.115.064-.307.239-.261.066.017.107.079.092.136zM88.646 23.33c-.013.043-.103.149-.2.235-.15.133-.167.123-.117-.065.032-.121-.025-.242-.127-.269-.226-.06-.315-.304-.162-.445.112-.103.654.383.606.544zM13.104 3.218c-.173-.002-.24.07-.217.23a1.34 1.34 0 01-.06.512c-.056.17-.019.297.099.328.105.028.206-.006.225-.075.019-.07.146-.097.282-.06.356.092.609-.35.372-.65-.196-.246-.283-.282-.701-.285zM87.16 22.79c.264-.266.765.163.656.563-.045.161-.139.279-.21.26-.07-.018-.106-.113-.08-.209.07-.254-.31-.482-.494-.297-.124.125-.208.11-.434-.074-.276-.226-.314-.442-.099-.564.06-.034.192.066.295.22.174.265.197.271.366.101zm-.898.208c-.047.17-.303.198-.352.037-.071-.23-.538-.302-.596-.09-.04.146-.093.117-.24-.131-.244-.416-.19-.646.093-.388.153.142.26.155.41.05.177-.122.238-.103.459.14.14.153.242.325.226.382zm-1.793-.585a.543.543 0 01.068.355c-.036.133-.086.122-.258-.06-.118-.123-.195-.295-.17-.382.054-.2.214-.161.36.087zM20.569 5.754c-.019.07-.06.12-.09.112-.032-.009-.078-.081-.102-.162-.025-.08.016-.13.09-.11.075.019.121.092.102.16zm63.115 16.632c.06.128.065.26.01.29-.119.067-.419-.313-.375-.473.047-.174.245-.075.365.183zm-.741-.084c.106.128.125.25.044.274-.08.023-.212-.093-.293-.258-.169-.347-.03-.356.249-.016zm-3.528-.546c-.239.07-.28-.037-.103-.276.124-.167.158-.165.213.013.041.135.001.23-.11.263zm.733.064c-.117.066-.178.058-.157-.02.046-.168.239-.277.301-.17.027.044-.038.13-.144.19zm-1.407-.252a.15.15 0 01-.21-.006.143.143 0 01.007-.205.15.15 0 01.209.006.143.143 0 01-.006.205zm-59.7-15.53a.15.15 0 01-.21-.006.143.143 0 01.006-.204.15.15 0 01.21.006.143.143 0 01-.007.204zm58.94 15.32c.024.08-.049.121-.163.091s-.157-.102-.094-.16c.063-.057.136-.098.163-.091.027.007.069.078.094.16zm10.235 3.409c.138.233-.36.31-.998.155-.373-.092-.762-.141-.865-.11-.103.03-.238.003-.3-.062-.061-.064-.221-.101-.355-.082-.134.018-.534-.034-.89-.117-.356-.082-.717-.129-.803-.103-.087.026-.227-.026-.312-.114-.26-.27.13-.368.828-.209.351.08.704.131.783.113.08-.018.436.025.792.096.356.072.708.096.782.054.155-.087 1.245.221 1.338.379zm.675.193c-.029.105-.166.159-.308.121-.256-.067-.298-.221-.091-.337.198-.113.451.025.399.216zM12.993 5.388c-.193.1-.37.249-.391.329-.03.108.01.117.155.035a.66.66 0 01.426-.05c.146.039.257-.032.3-.19.087-.32-.048-.354-.49-.124zm77.659 20.386c-.164.151-.091.212.224.185.238-.02.248-.039.081-.157-.104-.075-.241-.087-.305-.028zm-7.374-1.69c.054.176-.228.262-.37.113-.12-.124.036-.325.216-.278.062.016.132.09.154.166zm-1.743-.167a.15.15 0 01-.209-.006.143.143 0 01.006-.204.15.15 0 01.21.006.143.143 0 01-.007.204zm.897.014c-.008.031-.082.076-.164.1-.083.024-.133-.016-.114-.09a.138.138 0 01.165-.099c.07.019.122.059.113.09zm-1.657-.225c.025.081-.049.122-.163.093-.114-.03-.156-.102-.094-.16.063-.058.136-.099.163-.092.027.007.07.079.094.16zm1.366 1.44c-.003.45-.015.462-.425.397-.99-.159-1.133-.175-1.333-.155-.116.013-.299 0-.405-.027a15.038 15.038 0 00-.817-.154c-.55-.092-.617-.133-.558-.347.05-.188.12-.209.306-.092.133.083.339.106.459.052.158-.07.278-.042.438.105.176.162.258.166.403.02.157-.158.204-.151.35.051.149.206.208.204.495-.01.265-.2.315-.205.268-.025-.079.305.32.382.488.094.175-.3.333-.257.33.09zm7.521 2.248c-.182.168-.06.28.285.265.24-.01.275-.048.16-.17-.195-.207-.299-.23-.445-.095zm-11.45-2.717c.166.281.093.401-.198.325-.171-.045-.234-.151-.188-.319.078-.284.221-.287.387-.006zM28.684 11.781c-.017.066-.1.138-.182.163-.082.024-.125-.045-.096-.152.03-.108.112-.18.182-.162.071.018.114.086.096.151zM76.96 24.48a.469.469 0 01.418.033c.297.211-.146.457-.488.27-.149-.08-.32-.102-.38-.046-.111.102-.688-.027-1.228-.276-.414-.19-.013-.308.553-.163.23.06.433.051.452-.019.021-.076.115-.042.24.089.16.167.256.192.433.112zM28 11.947c-.13.177-.504.152-.454-.03.042-.153.222-.233.413-.183.095.025.113.116.041.213zM12.943 7.988c-.008.03-.082.075-.165.1-.082.024-.133-.016-.113-.09a.138.138 0 01.165-.099c.07.019.121.059.113.09zm-.731.044c-.143.212-.43.178-.37-.044a.211.211 0 01.258-.146c.112.03.162.115.112.19zm14.922 4.027c-.108.185-.167.195-.274.048-.154-.214-.021-.398.238-.33.11.03.123.131.036.282zM11.385 7.873c.143.1.141.162-.008.265-.223.155-.406.02-.334-.244.056-.204.083-.206.342-.021zm72.231 19.182c-.01.153-.07.181-.197.091-.212-.151-.148-.544.067-.405.08.052.139.193.13.314zM26.372 12.092c-.125.251-.348.175-.331-.113.007-.12.1-.183.223-.151.132.035.172.133.108.264zm56.487 14.802c-.036.133-.117.157-.237.072-.1-.07-.21-.136-.243-.145-.034-.01-.01-.064.052-.121.181-.167.49-.028.428.194zm3.358.799a.13.13 0 00.094.16.133.133 0 00.162-.093.13.13 0 00-.094-.159.134.134 0 00-.162.092zm-4.967-1.042c.006.102-.055.137-.142.08a.406.406 0 01-.165-.278c-.006-.103.055-.138.143-.08.084.053.158.179.164.278zm.799.093c-.046.068-.138.109-.205.091-.067-.017-.126-.098-.13-.179-.006-.08.086-.122.204-.09.118.03.176.11.13.178zm2.53.722c-.077.102-.052.188.063.218.207.054.308-.13.157-.287-.053-.055-.152-.024-.22.069zm.77.134c-.063.057-.053.12.021.14.075.02.152-.02.17-.09.02-.069.01-.132-.022-.14-.03-.008-.107.032-.17.09zM25.45 12.288c-.089.082-.164.07-.227-.036a.238.238 0 01.04-.283c.089-.082.164-.07.227.037a.238.238 0 01-.04.282zm55.032 14.248c-.03.11-.117.159-.193.11-.217-.14-.182-.421.044-.362.112.03.179.143.149.252zm-.779-.17c-.044.163-.227.232-.33.124-.11-.115.064-.306.238-.26.067.017.108.078.092.136zM24.691 12.299c-.027.1-.107.165-.178.147-.07-.018-.096-.15-.057-.292.039-.143.119-.209.178-.148.058.061.084.193.057.293zm54.074 13.978a.134.134 0 01-.163.092.13.13 0 01-.094-.16.133.133 0 01.163-.092.13.13 0 01.094.16zm-3.019-.527c-.018.067-.11.066-.206-.002-.095-.067-.166-.145-.159-.172.007-.027.1-.026.206.001.106.028.177.106.16.173zM23.872 12.315c-.057.146-.225.07-.236-.106-.005-.09.053-.123.13-.073.077.05.125.13.106.179zm50.282 13.223c-.058.212-.084.214-.341.03-.258-.182-.17-.366.136-.286.142.038.233.151.205.256zm.787.14c-.02.068-.06.118-.091.11-.031-.008-.077-.08-.102-.161-.024-.08.017-.13.091-.111.075.02.12.092.102.161zm-1.569-.3c-.048.177-.215.22-.384.1-.24-.171-.138-.35.156-.272.142.037.244.114.228.172zM23.033 12.364c-.057.146-.225.07-.236-.106-.005-.09.053-.123.13-.073.078.05.125.13.106.179zm-.788.125c-.113.064-.308-.177-.267-.329.023-.083.094-.054.189.077.084.116.118.23.078.252zm54.96 14.348c-.116.171-.324.059-.31-.168.008-.142.069-.165.197-.074.102.073.153.182.113.242zM21.51 12.414c.1.215.085.233-.113.139-.127-.06-.234-.187-.24-.28-.015-.245.215-.152.353.141zm52.214 13.781c-.117.066-.178.058-.157-.02.046-.169.239-.277.301-.171.027.045-.038.131-.144.191zm-5.64-1.59c-.008.026-.11.058-.227.07-.117.012-.197-.033-.179-.1.019-.066.12-.099.226-.07.106.027.187.072.18.1zm17.365 4.637c-.063.058-.172.09-.242.071-.07-.018-.077-.08-.015-.138.063-.058.172-.09.242-.071.07.018.077.08.015.138zM20.663 12.446c.088.188.07.22-.1.175-.115-.03-.185-.139-.157-.243.028-.103.073-.182.1-.175.027.007.097.116.157.243zm46.614 12.088c-.008.03-.082.075-.165.1-.082.023-.133-.017-.113-.09a.138.138 0 01.165-.1c.07.02.121.06.113.09zm-1.502-.04c-.016.06-.107.053-.202-.014-.095-.068-.16-.172-.143-.231.016-.06.107-.053.202.014.095.068.16.172.143.231zm17.46 4.754c-.075.101-.182.137-.237.08-.06-.064-.02-.163.1-.246.25-.172.323-.084.138.166zm-64.267-16.64c-.019.068-.06.118-.09.11-.032-.008-.078-.08-.102-.161-.025-.081.016-.13.09-.111.075.02.121.092.102.161zm-.804-.077c-.02.069-.06.119-.091.11-.031-.008-.077-.08-.102-.16-.024-.081.017-.131.091-.112.075.02.12.093.102.162zM81.55 29.162a.134.134 0 01-.163.092.13.13 0 01-.094-.159.134.134 0 01.163-.092.13.13 0 01.094.16zM17.39 12.597c.025.08-.045.123-.155.094-.11-.03-.184-.11-.166-.178a.13.13 0 01.156-.094c.066.017.14.097.165.178zm68.422 18.087c-.02.069.02.14.086.157.066.018.172-.015.234-.073.063-.058.024-.128-.086-.157-.11-.03-.215.004-.234.073zM14.099 12.81a.13.13 0 01-.155.094c-.067-.018-.141-.098-.166-.178-.025-.08.045-.123.155-.094.11.029.185.109.166.178zm-.746.134c-.01.15-.073.199-.174.134-.086-.056-.15-.208-.14-.337.01-.151.074-.2.174-.134.087.056.15.207.14.337zm-6.642-1.601c.015.141-.058.186-.23.141-.252-.066-.292-.22-.087-.337.176-.099.293-.027.317.196zm5.839 1.6c-.038.137-.12.237-.182.22-.063-.016-.113-.15-.112-.298.001-.175.065-.252.182-.222.1.027.15.16.112.3zM5.985 11.29c-.118.082-.234.116-.258.076-.065-.11.181-.301.336-.26.086.022.056.091-.078.184zm5.791 1.662c.06.554-.221.59-.315.041-.049-.283-.026-.343.115-.306.097.025.187.144.2.265zm-.903.307c-.008.492-.109.495-.159.004-.023-.225.005-.397.062-.382.057.014.1.185.097.378zM75.39 29.92c-.057.032-.237.03-.4-.004-.203-.042-.335.024-.416.21-.074.17-.207.248-.357.21-.275-.073-.65.392-.431.533.076.05.219.238.316.418.155.286.185.3.237.111a.345.345 0 01.271-.238c.139-.014.26-.192.347-.51.12-.439.167-.481.454-.406.2.053.34.013.373-.104.051-.189-.2-.33-.394-.22zM10.034 13.128c-.057.146-.225.07-.236-.106-.005-.09.053-.123.13-.073.078.05.125.13.106.179zm-3.767-.848c.095.07.341.188.547.263.28.103.358.203.308.39-.038.138-.031.39.014.559.084.315-.257 1.6-.414 1.558-.112-.03-.151-.594-.055-.789.04-.082.016-.164-.054-.182-.07-.019-.112-.242-.092-.497.028-.356-.052-.535-.343-.778-.21-.174-.366-.367-.35-.428.017-.061-.059-.135-.169-.164-.11-.028-.157-.091-.105-.14.102-.093.432.003.713.208zm54.91 14.44c-.029.108-.102.145-.162.083-.06-.063-.06-.157-.002-.21.157-.146.225-.094.165.127zM5.52 12.431c.118.126.069.215-.257.47-.222.172-.479.294-.571.27-.21-.055-.228.007-.114.372.067.215.043.314-.096.393-.198.112-.483-.085-.328-.227.153-.142-.19-.522-.376-.416-.108.06-.113.16-.014.296.16.223 0 .55-.24.487-.08-.021-.17-.177-.2-.346-.065-.395-.397-.636-.347-.253.072.551.037.7-.171.721-.141.015-.26-.138-.348-.447-.143-.506.007-.778.55-.994.149-.059.298-.21.333-.336a.6.6 0 01.298-.335c.199-.09.221-.055.145.224-.09.33.161.535.393.322.063-.058.248-.07.412-.027.19.05.348-.006.434-.155.148-.254.271-.259.497-.019zm2.158.706c.077.323-.031.81-.171.771-.115-.031-.25-.719-.187-.95.067-.245.283-.137.358.18zm56.239 14.63c-.02.07-.096.11-.17.09-.075-.02-.085-.082-.023-.14.063-.058.14-.098.17-.09.032.008.042.071.023.14zM8.457 13.814c-.023.072-.096 0-.163-.162-.067-.16-.103-.352-.08-.425.021-.072.094 0 .161.162.067.16.104.352.081.425zm52.41 13.288c.025.08-.045.123-.155.094-.11-.029-.185-.11-.166-.178a.13.13 0 01.155-.094c.067.017.141.097.166.178zM9.379 13.727c.024.08-.046.123-.156.094-.11-.029-.184-.11-.165-.178a.13.13 0 01.155-.094c.066.017.14.098.166.178zM55.64 26.215c-.201.114-.46-.186-.322-.372.122-.165.149-.159.281.065.08.136.099.275.04.307zm-.774-.054c-.081.297-.346.025-.306-.314.033-.27.058-.282.197-.09.087.122.137.303.109.404zM6.17 13.366c.1.299.085.408-.076.52-.28.195-.452-.078-.358-.568.092-.479.264-.46.434.048zM52.256 25.65c-.019.069-.06.119-.09.11-.032-.008-.078-.08-.102-.16-.025-.081.016-.131.09-.112.075.02.121.092.102.162zm7.859 2.148c.032.301-.105.366-.275.131-.075-.103-.184-.161-.243-.128-.059.034-.09 0-.07-.075.034-.123.25-.199.478-.167.047.006.096.114.11.24zM5.42 14.19c-.084.341-.067.583.049.693.226.215.182.374-.111.404-.376.039-.546-.334-.349-.764.097-.21.132-.456.08-.546-.113-.19.078-.411.304-.352.094.025.105.247.027.565zm3.1.66c.025.08-.016.13-.09.11-.075-.019-.12-.092-.102-.16.019-.07.06-.12.091-.111.031.008.077.08.101.16zm-7.96-1.82c-.081.299.232.423.421.167.192-.258.187-.276-.095-.35-.171-.045-.28.016-.326.184zm-.437-.061c-.088.117-.138.25-.111.296.085.145.24-.015.256-.267.015-.23.008-.232-.145-.03zm5.978 1.813c.03.288-.01.475-.114.533-.22.125-.271-.01-.214-.563.06-.589.267-.57.328.03zm1.645.134a.134.134 0 01-.163.092.13.13 0 01-.094-.16.134.134 0 01.163-.091.13.13 0 01.094.159zm-3.298.192c-.127.096-.265-.237-.198-.477.074-.264.081-.26.16.083.046.197.063.375.038.394zm-4.444-1.55a.13.13 0 00.093.16.133.133 0 00.163-.093.13.13 0 00-.094-.16.134.134 0 00-.162.093zm53.82 14.399c-.07.262-.278.278-.355.027-.065-.215.184-.52.315-.383.059.061.078.221.04.356zm-.786-.14c-.03.108-.102.146-.16.085-.06-.061-.093-.164-.076-.23.018-.064.09-.102.161-.084.07.018.104.122.075.23zM.37 14.73c-.019.07.052.149.158.176.106.028.208-.006.227-.075.019-.069-.052-.148-.158-.176-.106-.028-.208.006-.227.075zm6.472 4.005c-.252.073-.54.11-.64.084a.365.365 0 00-.306.066c-.068.063-.222.06-.341-.007-.12-.067-.35-.074-.512-.016-.162.058-.321.06-.354.005-.032-.055-.184-.037-.338.04a.705.705 0 01-.611-.02c-.286-.136-.304-.187-.13-.368.167-.175.226-.174.354.002.128.176.195.18.392.025.187-.147.27-.146.378.005.108.149.19.158.356.043a.418.418 0 01.422-.022c.114.071.314.068.446-.006a.543.543 0 01.493.005c.164.091.298.08.382-.034a.217.217 0 01.3-.054c.123.088.046.156-.29.252zm36.461 9.474c-.008.03-.082.076-.164.1-.083.024-.133-.016-.114-.09a.138.138 0 01.165-.099c.07.019.122.059.113.09zm-10.029-1.546a.2.2 0 01-.244.138c-.2-.052-.214-.215-.026-.321.187-.106.324-.013.27.183zM9.907 20.666c-.018.066-.1.124-.183.129-.082.004-.124-.086-.093-.2.032-.116.114-.174.183-.13.07.046.111.136.093.201zm22.387 6.116c-.208.118-.341-.05-.167-.211.068-.063.172-.063.232 0 .074.076.052.145-.065.211zM2.8 19.15c-.068.063-.082.184-.032.27.06.101.14.072.232-.086.148-.253.011-.38-.2-.184zm29.076 7.605c-.046.167-1.23.216-1.384.058-.084-.088.062-.161.416-.207.62-.08 1.014-.02.968.148zM8.358 20.723c-.04.149-.334.242-.402.128-.067-.115.162-.317.314-.277a.122.122 0 01.088.15zm21.691 6.171c-.116.08-.269.131-.34.113-.071-.019-.034-.099.084-.18.116-.08.268-.132.34-.113.07.019.034.098-.084.18zm-.71-.018c-.057.115-.218.179-.358.143a1.4 1.4 0 00-.578.017c-.178.045-.341.026-.362-.042-.021-.069.138-.156.354-.193.215-.037.49-.091.612-.12.35-.085.444-.03.332.195zm10.94 2.837c-.028.104-.108.173-.179.155-.07-.019-.105-.119-.077-.222.029-.104.11-.174.18-.155.07.018.105.118.077.222zm-19.648-5.088a.134.134 0 01-.163.092.13.13 0 01-.094-.16.134.134 0 01.163-.091.13.13 0 01.094.159zm-.433.073c-.03.107-.23.15-.511.109-.555-.08-.57-.202-.031-.263.54-.06.596-.045.542.154zM4.199 20.845c-.078.287-.324.393-.393.17-.061-.199.154-.494.328-.448.072.019.102.144.065.278zm14.39 3.952c-.076.209-.166.25-.367.165-.158-.067-.322-.04-.4.066-.099.133-.167.133-.263 0-.096-.132-.21-.13-.439.011-.314.193-.875.033-.803-.229.018-.068.107-.072.197-.008.09.064.217.043.283-.046.066-.089.26-.125.43-.08.17.044.4.017.512-.06.111-.078.271-.092.355-.032.084.06.207.058.274-.004.207-.19.325-.074.22.217zm9.109 2.146c-.009.031-.083.076-.165.1-.082.024-.133-.016-.113-.09a.138.138 0 01.165-.099c.07.019.121.059.113.09zM3.422 20.85c.028.265-.197.576-.323.445-.125-.13.037-.722.186-.683.063.017.125.124.137.238zm6.064 2.145c-.195.11-.3-.17-.154-.42l.15-.257.05.311c.028.171.007.336-.046.366zm-.75-.136c-.036.134-.124.228-.195.21-.07-.019-.088-.179-.04-.355.05-.183.134-.274.195-.21.059.06.077.22.04.355zm-.915.121c-.177.1-.214-.143-.051-.343.154-.19.161-.189.154.045-.004.134-.05.268-.103.298zm-.677-.21c-.016.22-.082.315-.2.284-.178-.047-.135-.457.06-.568.16-.09.167-.077.14.284zm22.7 5.88c-.016.058-.195.09-.398.071a3.476 3.476 0 00-.639.004c-.192.027-.24-.005-.17-.11.055-.082.318-.163.584-.18.493-.034.674.029.622.216zm-14.306-3.734c.027.088.2.16.388.163.218.003.296.044.22.114-.065.06-.259.072-.431.027s-.329-.025-.348.044c-.019.069-.207.08-.42.024-.21-.055-.4-.045-.418.022-.019.07-.196.044-.416-.063-.261-.127-.368-.135-.335-.026.058.188-.21.295-.357.142-.155-.16.113-.446.357-.381.118.03.37 0 .56-.067.19-.068.423-.069.518-.002a.215.215 0 00.296-.045c.145-.196.318-.175.386.048zm8.315 2.256c-.311.031-.727.08-.923.108a2.52 2.52 0 01-.6.012c-.134-.022-.308.02-.387.094-.086.078-.242.071-.384-.017-.132-.083-.293-.101-.358-.041-.162.149-.626.013-.576-.169.022-.08.068-.098.103-.04.034.06.203.063.376.008.306-.096.94-.13 1.336-.07.436.066 1.1.04 1.193-.046.055-.05.254-.047.443.006.305.086.28.104-.223.155zM6.274 22.81c-.047.172-.144.299-.214.28-.07-.018-.09-.175-.043-.348.048-.172.144-.299.215-.28.07.018.09.175.042.348zm22.053 5.853c-.019.07-.121.103-.227.075-.106-.027-.177-.107-.158-.176.019-.069.121-.103.227-.075.106.028.177.107.158.176zm-.903.033c.025.08-.016.13-.09.11-.075-.02-.121-.092-.102-.16.019-.07.06-.12.09-.112.032.009.077.081.102.162zm-.774.066c-.02.069-.121.103-.227.075-.106-.028-.177-.107-.158-.176.019-.07.12-.103.227-.075.105.027.177.107.158.176zM11.359 25.33c-.063.223-.091.233-.15.054-.096-.29-.017-.582.12-.44.059.061.072.235.03.386zm1.62.114a.13.13 0 01-.155.094c-.066-.017-.14-.097-.165-.178-.025-.08.045-.123.155-.094.11.03.184.11.166.178zm7.2 1.92c-.103.059-.225.027-.35-.092-.16-.153-.136-.167.16-.09.228.06.294.123.19.182zm-9.705-2.31c-.044.16-.19.247-.411.243-.188-.003-.362.068-.387.158-.029.105-.136.112-.301.02-.16-.089-.333-.082-.46.017-.127.1-.256.105-.346.011-.184-.191.088-.572.3-.42.088.061.318.056.513-.014.194-.07.47-.104.614-.077.143.026.3-.011.35-.084.137-.204.203-.13.127.146zm15.323 3.806c-.007.028-.108.06-.225.072-.117.012-.197-.033-.18-.1.02-.067.12-.1.227-.071.105.027.186.072.178.1zm-6.323-1.518c-.008.031-.082.076-.165.1-.082.024-.133-.016-.113-.09a.137.137 0 01.165-.099c.07.019.121.059.113.09zm5.297 1.45c.19.138.15.176-.333.307-.303.083-.66.121-.792.087-.133-.035-.296-.014-.362.047a.216.216 0 01-.254.019c-.127-.087-.866.037-1.415.236-.197.071-.288.046-.403-.113-.21-.29-.175-.863.064-1.03.174-.12.234-.102.447.131.228.25.261.253.47.035.202-.21.235-.21.32.008.12.301.807.448 1.204.258.473-.227.724-.224 1.054.015zm3.383 1.51c-.052.19-.338.316-.416.183-.027-.046.021-.192.108-.324.166-.254.388-.153.308.14zm-7.255-1.635a.2.2 0 01-.244.138c-.2-.053-.213-.215-.026-.321.187-.106.324-.013.27.183zm-6.753-1.705c.024.08-.017.13-.091.111-.075-.02-.12-.092-.102-.161.02-.07.06-.12.091-.111.031.008.077.08.102.161zm14.764 4c.006.103-.055.138-.143.08a.405.405 0 01-.164-.278c-.006-.102.055-.137.142-.08.085.054.159.18.165.279zm-8.682-2.353c-.007.026-.12.095-.248.153-.193.087-.226.07-.18-.098.03-.112.142-.18.248-.153.106.028.187.072.18.098zm-5.867-.954c.015.13-.005.186-.042.123-.037-.064-.233-.062-.435.003-.266.086-.396.07-.47-.056-.153-.259.147-.372.835-.316.048.004.098.114.112.246zm6.384 1.578c-.02.069-.121.102-.227.075-.106-.028-.177-.107-.158-.177.019-.069.12-.103.227-.075.105.028.177.107.158.177zM6.56 25.78c-.037.139-.01.267.06.285.07.019.16-.08.197-.217.038-.139.011-.267-.06-.285-.07-.019-.159.08-.197.217zm2.216.447a.133.133 0 01-.163.092.13.13 0 01-.094-.16.134.134 0 01.163-.091.13.13 0 01.094.16zm-.94.23c-.151.204-.403.155-.342-.068.063-.229.445-.434.456-.245a.58.58 0 01-.113.312zm12.005 2.808c.025.08-.045.123-.155.094-.11-.029-.185-.11-.166-.178a.13.13 0 01.155-.094c.067.017.141.097.166.178zM5.706 25.894c-.096.35.071.47.275.195.21-.282.21-.405.003-.46-.12-.03-.225.069-.278.264zm7.22 1.899c-.148.056-.31.06-.358.01-.049-.05-.223-.024-.387.059-.165.082-.345.102-.4.044-.057-.058-.197-.04-.312.04-.236.163-.71.086-.657-.107.019-.069.113-.105.21-.08.096.026.352-.028.57-.12.217-.09.512-.134.655-.096.144.037.308.025.364-.027.057-.052.212-.034.345.04.227.126.225.14-.03.237zM2.664 25.109a.275.275 0 00.015.339c.24.254.335.232.426-.102.097-.356-.224-.529-.441-.237zm16.403 4.223c-.018.07-.124.102-.234.073-.11-.029-.149-.1-.086-.157.062-.058.168-.09.234-.073a.126.126 0 01.086.157zm-.774.066c-.063.058-.168.09-.235.073a.126.126 0 01-.086-.157c.02-.07.125-.102.235-.073.11.029.148.1.086.157zM2.109 25.265c-.064.06-.064.161 0 .228.165.17.337.04.216-.164-.067-.114-.139-.135-.216-.064zm15.41 4.2c-.02.068-.125.101-.235.073-.11-.03-.149-.1-.086-.158.062-.057.168-.09.234-.073a.126.126 0 01.086.157zm-7.22-1.76c-.02.069.059.15.173.18.171.045.17.08-.005.202-.162.113-.245.103-.35-.04-.157-.22-.1-.551.087-.502a.13.13 0 01.095.16zm-2.122-.288c-.119.035-.237.028-.263-.016-.026-.044.05-.108.169-.143.118-.035.237-.028.262.016.026.044-.05.108-.168.143zM6.1 26.945c-.166.115-.192.195-.108.337.134.228.662-.017.584-.272-.068-.221-.22-.242-.476-.065zm3.49.978c-.002.308-.04.313-.339.04-.118-.11-.167-.244-.107-.299.187-.172.448-.021.446.259zm-5.555-1.457a.13.13 0 00.094.159.134.134 0 00.163-.092.13.13 0 00-.094-.16.134.134 0 00-.163.092zm4.687 1.414c.078.165.018.237-.275.332-.52.168-1.043.016-.962-.28.093-.34.261-.385.374-.1.09.228.118.23.323.015.26-.271.401-.263.54.033zm-5.428-1.385c-.188.106-.174.269.026.322a.2.2 0 00.244-.138c.054-.197-.083-.29-.27-.184zm2.383 1.007c-.032.116.01.206.093.2.082-.004.165-.062.183-.127.018-.066-.024-.156-.093-.2-.07-.046-.152.012-.183.127zm6.978 3.56c-.01.13-.098.198-.218.167-.118-.031-.172-.16-.13-.315.084-.306.372-.184.348.147z"/></symbol><symbol viewBox="0 0 22 21" id="dislike" xmlns="http://www.w3.org/2000/svg"><path d="M20.346.921h-2.222c-.858 0-1.556.698-1.556 1.556v10.222c0 .858.698 1.556 1.556 1.556h2.222c.858 0 1.556-.698 1.556-1.556V2.477c0-.858-.698-1.556-1.556-1.556zM5.118.7a3.55 3.55 0 00-3.502 2.95L.621 9.428a3.554 3.554 0 003.502 4.16h4.195s-.666 1.333-.666 3.556c0 2.666 2 3.555 2.889 3.555.889 0 1.333-.444 1.333-2.666 0-2.112 2.045-3.812 3.36-4.688V2.334C13.813 1.675 10.964.699 6.542.699H5.118z"/></symbol><symbol viewBox="0 0 19 13" id="done" xmlns="http://www.w3.org/2000/svg"><path d="M1.8 4.652L8.08 11.4l9.12-9.8"/></symbol><symbol viewBox="0 0 25 20" id="eye-hide" xmlns="http://www.w3.org/2000/svg"><path d="M15.604 10.21l1.42-1.42c.103.387.163.791.163 1.21a4.693 4.693 0 01-4.687 4.688c-.419 0-.823-.061-1.21-.164l1.42-1.42a3.111 3.111 0 002.894-2.893zm9.298-.59c-.097-.172-1.46-2.56-4.123-4.584l-1.137 1.137A15.636 15.636 0 0123.3 10c-.926 1.41-4.559 6.249-10.8 6.249-.936 0-1.806-.12-2.625-.31L8.59 17.222c1.18.362 2.478.59 3.909.59 8.178 0 12.233-7.13 12.402-7.433a.78.78 0 000-.76zM21.646 1.96L4.46 19.146a.779.779 0 01-1.105 0 .78.78 0 010-1.105l2.187-2.186C2.005 13.72.209 10.579.098 10.379a.781.781 0 010-.759C.267 9.317 4.322 2.188 12.5 2.188c2.115 0 3.946.482 5.512 1.195l2.53-2.529a.78.78 0 111.104 1.105zm-14.94 12.73l1.978-1.977A4.656 4.656 0 017.813 10 4.693 4.693 0 0112.5 5.313c1.01 0 1.945.324 2.712.87l1.6-1.599A11.503 11.503 0 0012.5 3.75C6.259 3.75 2.626 8.59 1.7 10c.588.89 2.278 3.146 5.006 4.69zm3.112-3.112l4.26-4.26a3.09 3.09 0 00-1.578-.442A3.129 3.129 0 009.375 10c0 .578.168 1.113.443 1.577z"/></symbol><symbol viewBox="0 0 25 16" id="eye-show" xmlns="http://www.w3.org/2000/svg"><path d="M12.5 15.813C4.322 15.813.267 8.683.098 8.378a.781.781 0 010-.759C.267 7.317 4.322.187 12.5.187c8.178 0 12.233 7.13 12.402 7.434a.781.781 0 010 .759c-.169.303-4.224 7.432-12.402 7.432zM1.7 7.998c.93 1.408 4.579 6.251 10.8 6.251 6.241 0 9.874-4.839 10.8-6.249-.93-1.408-4.579-6.251-10.8-6.251-6.241 0-9.874 4.839-10.8 6.249zm10.8 4.689A4.693 4.693 0 017.812 8 4.693 4.693 0 0112.5 3.312 4.693 4.693 0 0117.188 8a4.693 4.693 0 01-4.688 4.688zm0-7.813A3.129 3.129 0 009.375 8a3.129 3.129 0 003.125 3.125A3.129 3.129 0 0015.625 8 3.129 3.129 0 0012.5 4.875z"/></symbol><symbol viewBox="0 0 18 15" id="filter" xmlns="http://www.w3.org/2000/svg"><path d="M3.248.682a.682.682 0 10-1.363 0v10.874H.714a.682.682 0 100 1.364h1.17v1.398a.682.682 0 001.364 0V12.92H4.42a.682.682 0 100-1.364H3.248V.682zM9 0c.376 0 .682.305.682.682v1.632h1.171a.682.682 0 010 1.364H9.682v10.64a.682.682 0 01-1.364 0V3.678h-1.17a.682.682 0 110-1.364h1.17V.682C8.318.305 8.623 0 9 0zM15.433 0c.377 0 .682.305.682.682v6.136h1.171a.682.682 0 110 1.364h-1.171v6.136a.682.682 0 01-1.364 0V8.182h-1.17a.682.682 0 110-1.364h1.17V.682c0-.377.306-.682.682-.682z"/></symbol><symbol viewBox="0 0 41 38" id="heart" xmlns="http://www.w3.org/2000/svg"><path fill-rule="evenodd" clip-rule="evenodd" d="M10.1.764c-2.553.326-4.689 1.393-6.503 3.25C1.974 5.674.997 7.436.43 9.723c-.986 3.97-.27 7.88 2.119 11.552 1.531 2.353 3.506 4.514 7.137 7.809 2.31 2.096 9.352 8.205 9.693 8.41.323.194.442.217 1.122.217.68 0 .8-.023 1.122-.216.342-.206 7.4-6.33 9.693-8.412 3.641-3.306 5.608-5.458 7.137-7.808 2.388-3.671 3.105-7.581 2.119-11.552-.568-2.287-1.545-4.048-3.168-5.71-1.617-1.654-3.348-2.61-5.618-3.098C30.651.67 28.552.649 27.554.87c-2.766.617-4.893 2.028-6.834 4.535l-.22.284-.22-.285c-1.907-2.462-4.002-3.873-6.67-4.492-.796-.185-2.622-.262-3.51-.15zm2.68 2.486c2.27.402 4.234 1.743 5.786 3.947l.724 1.027a1.473 1.473 0 002.42 0l.724-1.027c2.122-3.013 5.075-4.433 8.294-3.987 3.573.496 6.364 3.044 7.43 6.783.841 2.956.47 6.06-1.06 8.856-1.283 2.342-3.42 4.791-7.145 8.185-1.804 1.644-9.381 8.273-9.456 8.273-.074 0-7.623-6.61-9.45-8.274-5.727-5.216-7.988-8.475-8.532-12.299-.352-2.47.155-5.129 1.375-7.215 1.846-3.156 5.438-4.881 8.89-4.27z"/></symbol><symbol viewBox="0 0 11 12" id="instagram" xmlns="http://www.w3.org/2000/svg"><path d="M10.924 4.113c-.026-.582-.12-.982-.255-1.328a2.671 2.671 0 00-.633-.97 2.695 2.695 0 00-.969-.632C8.72 1.048 8.321.954 7.74.93 7.153.9 6.967.895 5.481.895 3.994.895 3.808.9 3.224.927c-.582.025-.982.12-1.328.254a2.672 2.672 0 00-.971.633 2.695 2.695 0 00-.631.969C.159 3.13.065 3.529.039 4.11c-.027.586-.034.772-.034 2.258s.007 1.672.032 2.256c.026.582.12.982.255 1.328a2.7 2.7 0 00.633.97c.274.279.605.495.969.632.348.135.746.229 1.328.254.584.026.77.032 2.257.032 1.486 0 1.672-.006 2.256-.032.582-.025.982-.12 1.328-.254a2.8 2.8 0 001.602-1.602c.135-.349.23-.746.255-1.328.025-.584.032-.77.032-2.256 0-1.486-.002-1.672-.028-2.256zm-.986 4.47c-.024.534-.113.823-.188 1.015a1.816 1.816 0 01-1.04 1.04c-.192.074-.483.164-1.016.188-.577.025-.75.032-2.211.032-1.461 0-1.636-.007-2.212-.033-.535-.023-.823-.113-1.016-.188a1.684 1.684 0 01-.629-.408 1.702 1.702 0 01-.408-.629c-.075-.192-.165-.483-.188-1.016-.026-.577-.032-.75-.032-2.21 0-1.461.006-1.637.032-2.212.023-.535.113-.823.188-1.016.088-.237.227-.453.41-.628a1.7 1.7 0 01.63-.409c.192-.075.483-.164 1.015-.188.578-.026.751-.032 2.212-.032 1.463 0 1.636.006 2.212.032.534.024.823.113 1.015.188.238.088.454.227.63.409.181.177.32.39.408.628.075.193.164.484.188 1.016.026.577.032.75.032 2.211 0 1.46-.006 1.632-.032 2.21z"/><path d="M5.48 3.557a2.813 2.813 0 10.001 5.626 2.813 2.813 0 000-5.626zm0 4.636a1.825 1.825 0 110-3.65 1.825 1.825 0 010 3.65zM9.061 3.446a.657.657 0 11-1.313 0 .657.657 0 011.313 0z"/></symbol><symbol viewBox="0 0 22 21" id="like" xmlns="http://www.w3.org/2000/svg"><path d="M2.222 20.067h2.223c.857 0 1.555-.698 1.555-1.556V8.29c0-.858-.698-1.555-1.555-1.555H2.222c-.857 0-1.555.697-1.555 1.555v10.222c0 .858.698 1.556 1.555 1.556zM17.45 20.29a3.55 3.55 0 003.502-2.952l.996-5.778a3.554 3.554 0 00-3.503-4.16H14.25s.666-1.333.666-3.555c0-2.667-2-3.556-2.888-3.556-.89 0-1.334.445-1.334 2.667 0 2.112-2.045 3.811-3.36 4.687v11.011c1.423.66 4.271 1.635 8.694 1.635h1.422z"/></symbol><symbol viewBox="0 0 15 21" id="location" xmlns="http://www.w3.org/2000/svg"><path fill-rule="evenodd" clip-rule="evenodd" d="M6.668.754a7.733 7.733 0 00-2.44.677C2.661 2.152 1.495 3.249.745 4.705c-1.36 2.643-.876 5.48 1.598 9.365.704 1.105 1.36 2.02 3.01 4.2.553.73 1.167 1.547 1.364 1.816.375.512.517.625.785.625s.41-.113.785-.625c.197-.268.811-1.086 1.365-1.816 1.617-2.135 2.33-3.13 3.017-4.214 2.222-3.504 2.809-6.056 1.958-8.52-.158-.459-.588-1.276-.905-1.72C12.187 1.668 9.412.463 6.668.754zM8.732 2c2.84.558 4.877 2.788 5.013 5.487.065 1.3-.352 2.737-1.322 4.55-.763 1.428-1.606 2.663-3.837 5.62-.585.774-1.073 1.409-1.084 1.41-.012 0-.128-.144-.258-.321-.13-.177-.643-.857-1.14-1.513-.984-1.297-1.962-2.652-2.426-3.36-1.732-2.641-2.505-4.681-2.42-6.386.108-2.136 1.396-3.995 3.45-4.978a6.628 6.628 0 012.043-.588c.442-.057 1.506-.015 1.981.079zm-1.98 2.298c-1.413.29-2.506 1.262-2.884 2.564-.074.254-.09.42-.09.879 0 .46.016.625.09.879.368 1.266 1.418 2.226 2.786 2.547.43.1 1.346.09 1.786-.022 1.321-.335 2.336-1.286 2.696-2.525.074-.254.09-.42.09-.879 0-.46-.017-.625-.09-.879-.36-1.242-1.387-2.202-2.696-2.522-.484-.118-1.228-.136-1.689-.042zm1.35 1.176c.472.113.792.287 1.153.625.36.338.546.638.667 1.08.15.552.071 1.153-.22 1.668-.18.32-.685.794-1.02.957a2.67 2.67 0 01-1.78.204 2.362 2.362 0 01-1.153-.626c-.362-.337-.546-.634-.667-1.078-.15-.551-.072-1.15.217-1.67.175-.313.68-.785 1.023-.955a2.654 2.654 0 011.78-.205z"/></symbol><symbol viewBox="0 0 17 16" id="location-arrow" xmlns="http://www.w3.org/2000/svg"><path d="M16.305.195A.668.668 0 0015.58.05l-14.667 6a.666.666 0 00.133 1.274l6.88 1.25 1.251 6.88a.666.666 0 001.273.132l6-14.666a.667.667 0 00-.146-.724z"/></symbol><symbol viewBox="0 0 170 48" id="logo" xmlns="http://www.w3.org/2000/svg"><path fill-rule="evenodd" clip-rule="evenodd" d="M25.2.824c-.25.26-.258.329-.061.608.137.195.313.215 2.135.246 2.33.04 2.637 0 2.799-.367.096-.219.082-.307-.074-.486-.18-.206-.324-.22-2.39-.22-2.057 0-2.211.014-2.409.22zm.897 1.713c-4.765.241-10.32 1.74-14.237 3.84l-.633.34 16.346-.004L43.92 6.71l-1.16-.59c-3.88-1.972-8.616-3.235-13.288-3.543-1.617-.107-1.955-.11-3.374-.039zm83.768 3.145c-1.681.307-3.935 1.07-4.136 1.402-.086.14-.053.438.136 1.2.47 1.907.533 2.077.729 1.986.556-.26 2.615-.93 3.311-1.076 1.063-.224 2.603-.225 3.117-.002.794.344 1.1.908.875 1.615-.136.426-.673.996-1.094 1.16-.164.064-1.026.117-1.917.117-1.333 0-1.65.03-1.786.171-.243.252-.243 2.903 0 3.155.136.141.453.172 1.786.172 1.763 0 2.044.063 2.549.567.862.863.687 1.848-.413 2.325-.894.387-3.122.13-5.207-.6-1.065-.374-1.367-.4-1.499-.133-.052.105-.231.744-.399 1.421-.231.936-.277 1.276-.19 1.421.144.24 1.737.83 3.26 1.206.965.238 1.416.287 2.689.292 1.321.004 1.637-.03 2.32-.252.435-.142.988-.377 1.228-.523.622-.378 1.376-1.255 1.706-1.984.256-.567.282-.74.277-1.882-.006-1.409-.154-1.93-.861-3.034-.258-.404-.351-.642-.285-.733.925-1.286 1.14-1.93 1.146-3.448.005-1.16-.018-1.31-.297-1.936a4.278 4.278 0 00-.9-1.269c-.671-.664-.93-.822-1.909-1.168-.87-.307-3.016-.394-4.236-.17zm-40.088.444c-1.246.355-2.703 1.467-3.295 2.514-1.567 2.772-.555 6.308 2.207 7.707 1.309.663 3.118.881 3.554.429.203-.21.217-.33.185-1.59-.04-1.563-.043-1.567-.932-1.57-.82-.004-1.323-.177-1.794-.617-1.01-.946-.934-2.407.169-3.28.394-.312.401-.314 2.17-.348l1.776-.035v5.973c0 3.907.037 6.045.109 6.183.1.193.233.212 1.508.212.947 0 1.44-.043 1.525-.132.09-.093.127-.766.127-2.335v-2.204l.86-.568c.778-.513.876-.551 1.024-.398.09.094 1.235 1.388 2.543 2.876l2.38 2.706 1.776.03c1.892.032 2.106-.017 2.047-.473-.018-.137-1.404-1.807-3.173-3.823l-3.14-3.58 1.194-1.27c1.666-1.772 2.822-3.406 3.713-5.249.327-.677.373-.851.279-1.066-.111-.252-.138-.256-1.696-.256H83.31l-.436.902c-1.051 2.171-3.004 4.513-4.84 5.801l-.896.63-.028-3.52c-.018-2.376-.065-3.568-.144-3.667-.167-.208-6.451-.192-7.19.018zM90.713 6.1c-.115.145-.763 2.484-.763 2.752 0 .344.438.5 1.402.5.86 0 .928.016.87.202-.033.112-.748 2.797-1.587 5.968-1.185 4.478-1.501 5.811-1.418 5.974.099.19.239.209 1.568.209 1.042 0 1.49-.04 1.563-.137.057-.075.283-.825.502-1.667l.45-1.722c.046-.177.302-.191 3.457-.191h3.408l.158.574c.087.315.286 1.066.441 1.667.418 1.612.238 1.476 1.947 1.476 1.366 0 1.477-.016 1.583-.221.092-.179-.263-1.651-1.855-7.68-1.083-4.102-2.012-7.545-2.065-7.65-.089-.178-.428-.191-4.825-.191-3.656 0-4.753.031-4.836.137zm29.314.001c-.119.149-.758 2.433-.757 2.704.003.411.184.491 1.243.547l1.041.054-1.565 5.904c-1.241 4.678-1.544 5.954-1.462 6.149.1.238.15.246 1.579.246 1.297 0 1.486-.024 1.573-.192.054-.105.272-.855.484-1.667.213-.811.411-1.562.44-1.667.05-.177.307-.191 3.462-.191 3.156 0 3.411.014 3.458.191l.449 1.722c.219.842.446 1.592.502 1.667.074.098.521.137 1.563.137 1.338 0 1.469-.018 1.57-.213.086-.167-.305-1.787-1.845-7.625-1.074-4.077-1.999-7.523-2.054-7.658l-.101-.246h-4.735c-3.686 0-4.759.03-4.845.138zm15.169.073c-.072.14-.109 2.735-.109 7.66 0 4.925.037 7.52.109 7.66.099.192.233.21 1.508.21.947 0 1.44-.042 1.525-.13.093-.096.127-.94.127-3.116v-2.985H145.528v2.985c0 2.175.034 3.02.126 3.115.086.089.566.132 1.471.132 1.269 0 1.353-.014 1.508-.243.145-.214.164-1.121.164-7.628s-.019-7.414-.164-7.628c-.155-.23-.239-.243-1.508-.243-.905 0-1.385.043-1.471.131-.092.096-.126.928-.126 3.061v2.93H138.357v-2.93c0-2.133-.035-2.965-.127-3.06-.085-.09-.578-.132-1.525-.132-1.275 0-1.409.019-1.508.211zM27.227 9.898c-12.473 1.14-18.959 1.772-19.061 1.86-.241.208-.194.732.082.914.189.124.42.137 1.134.064 1.651-.17 1.534-.208 1.902.632.177.406.565 1.165.863 1.686l.54.949.852.062c.665.048 23.652.875 26.62.957l.67.018.57-.86c1.061-1.6 2.124-4.041 2.538-5.83l.175-.756.747-.07c2.195-.207 2.303-.244 2.303-.774 0-.38-.271-.606-.706-.59-.177.007-8.83.789-19.229 1.738zm71.287 1.803c.333 1.263.635 2.431.67 2.596l.065.301h-2.487c-1.368 0-2.487-.026-2.487-.058 0-.072 1.132-4.35 1.28-4.838l.11-.358 1.122.03 1.122.031.605 2.296zm29.36.219c.367 1.383.668 2.551.671 2.596.002.045-1.111.082-2.474.082-1.363 0-2.478-.037-2.478-.083 0-.08 1.225-4.754 1.319-5.031.036-.105.33-.133 1.172-.11l1.124.031.666 2.515zM3.586 17.68c-.25.278-.276.616-.07.909.163.231 1.059.363 2.544.375l.844.007.467 1.436c.257.79.758 2.04 1.114 2.776.633 1.31 2.196 3.877 2.36 3.877.154 0 33.806-3.053 34.407-3.121l.596-.068.523-1.166a33.85 33.85 0 00.713-1.691l.19-.526 1.73.024c1.928.028 2.069-.018 2.069-.679 0-.486-.344-.753-.97-.753-.269 0-10.66-.369-23.09-.82-12.43-.45-22.737-.82-22.906-.82a.76.76 0 00-.521.24zm23.354 9.616C-2.117 29.94.082 29.68.016 30.481c-.024.29.029.456.2.633.25.259.288.26 3.102.04l.843-.067.756 1.621c3.64 7.808 10.56 13.116 18.807 14.425 1.654.263 4.874.264 6.538.002 5.367-.844 9.845-3.178 13.663-7.12 3.204-3.31 5.439-7.317 6.623-11.88l.331-1.276.422-.06c.232-.032 1.08-.118 1.885-.19 1.242-.11 1.504-.166 1.73-.368.317-.282.348-.837.067-1.16-.148-.169-.32-.205-.93-.195-.411.006-12.612 1.09-27.113 2.41zm46.986-.352c-.073.14-.11 2.746-.11 7.699 0 6.66.019 7.506.166 7.659.224.232 2.801.254 2.984.025.082-.101.126-1.677.145-5.15l.027-5.005 2.515 3.299c2.268 2.973 2.543 3.295 2.794 3.265.225-.027.755-.659 2.758-3.284l2.48-3.25.027 4.99c.019 3.462.063 5.034.144 5.135.088.11.477.147 1.525.147 1.283 0 1.416-.019 1.516-.212.167-.323.15-15.225-.017-15.399-.087-.09-.6-.13-1.627-.13h-1.5l-.465.573c-.256.316-1.45 1.865-2.652 3.444-1.203 1.578-2.2 2.87-2.216 2.87-.016 0-1.21-1.55-2.655-3.444l-2.627-3.443h-1.551c-1.427 0-1.561.016-1.661.21zm20.259-.02c-.2.393-.749 2.645-.685 2.817.101.273.498.38 1.415.38.46 0 .837.022.837.05 0 .027-.688 2.65-1.53 5.83-.84 3.18-1.529 5.879-1.529 5.996 0 .42.196.477 1.643.477 1.01 0 1.42-.039 1.503-.142.063-.078.318-.915.567-1.86l.453-1.716 3.425.028 3.424.028.442 1.671c.243.92.499 1.743.569 1.831.1.125.428.16 1.518.16 1.421 0 1.642-.06 1.642-.444 0-.294-3.912-15.012-4.03-15.161-.084-.106-1.182-.137-4.837-.137-4.397 0-4.736.014-4.827.191zm31.116-.06c-.183.19-.183 15.289 0 15.479.085.088.566.13 1.47.13 1.776 0 1.672.164 1.676-2.62l.004-2.135.857-.534.857-.535.273.337c.15.184 1.291 1.495 2.535 2.912l2.262 2.576h1.751c1.845 0 2.004-.04 2.004-.503 0-.161-1.01-1.39-3.085-3.757-1.697-1.935-3.096-3.551-3.111-3.592-.014-.04.389-.517.897-1.058 1.637-1.746 3.054-3.728 3.886-5.435.649-1.333.565-1.413-1.447-1.373l-1.513.03-.512.982c-.864 1.654-1.443 2.465-2.707 3.786-1.059 1.106-2.599 2.393-2.865 2.393-.049 0-.089-1.528-.089-3.396 0-2.132-.041-3.475-.109-3.607-.1-.193-.233-.212-1.508-.212-.948 0-1.44.042-1.526.131zm15.907.08c-.072.14-.109 2.724-.109 7.627 0 6.536.019 7.446.164 7.66l.164.243H153.214l.165-.243c.125-.185.164-.537.164-1.476 0-1.838.488-1.67-4.851-1.67h-4.43v-2.842l3.296-.002c1.888 0 3.363-.046 3.454-.105.123-.08.166-.402.193-1.466.05-1.974.37-1.816-3.673-1.816h-3.27v-2.726l4.491-.031c4.305-.03 4.497-.04 4.64-.243.181-.256.213-2.577.041-2.91-.106-.206-.286-.212-6.113-.212-5.828 0-6.007.006-6.113.212zm13.938-.081c-.086.089-.127.582-.127 1.524 0 1.316.013 1.403.235 1.564.197.143.663.17 2.952.17h2.719v5.933c0 5.194.02 5.964.164 6.177.155.229.24.243 1.473.243 1.185 0 1.318-.02 1.417-.212.072-.138.11-2.273.11-6.176V30.12h2.682c1.507 0 2.802-.047 2.956-.108l.273-.108-.029-1.559-.03-1.56-7.333-.027c-5.617-.022-7.364.003-7.462.104zm-45.453.11c-.183.19-.183 15.18 0 15.37.086.088.578.13 1.526.13 1.275 0 1.408-.018 1.508-.21.06-.118.109-.899.109-1.75v-1.537h2.778c2.422 0 2.882-.028 3.593-.217 1.13-.3 1.785-.691 2.649-1.585 1.199-1.241 1.737-2.561 1.737-4.266 0-.485-.073-1.172-.162-1.525-.522-2.077-2.317-3.869-4.384-4.373-.888-.217-9.149-.25-9.354-.037zm-7.597 5.744l.683 2.596-2.475.03c-1.36.016-2.488.015-2.504-.001-.016-.017.18-.817.438-1.779l.689-2.595.222-.847h2.264l.683 2.596zm17.023-2.1c.35.223.631.525.862.924.294.51.342.693.34 1.308-.003.834-.224 1.426-.731 1.95-.7.727-.716.73-3.88.767l-2.874.034v-5.38l2.882.033 2.883.032.518.332z"/></symbol><symbol viewBox="0 0 10 10" id="menu" xmlns="http://www.w3.org/2000/svg"><path d="M0 .211h10v1H0zM0 4.211h10v1H0zM0 8.211h10v1H0z"/></symbol><symbol viewBox="0 0 8 3" id="minus" xmlns="http://www.w3.org/2000/svg"><path d="M7.446 2.764H.563V.604h6.883v2.16z"/></symbol><symbol viewBox="0 0 11 11" id="percent" xmlns="http://www.w3.org/2000/svg"><path d="M1.077 4.865C.609 4.433.375 3.88.375 3.205c0-.675.23-1.224.688-1.647.478-.423 1.072-.635 1.782-.635.712 0 1.301.212 1.769.635.468.414.702.963.702 1.647 0 .675-.234 1.228-.702 1.66-.477.423-1.067.635-1.768.635-.703 0-1.292-.212-1.769-.635zm.31-1.66c0 .414.14.756.419 1.026.288.26.635.391 1.04.391.413 0 .76-.13 1.039-.391.279-.27.418-.612.418-1.026 0-.405-.139-.738-.418-1a1.436 1.436 0 00-1.04-.404c-.413 0-.76.135-1.039.405a1.308 1.308 0 00-.419.999zM6.76 9.9c-.467-.432-.701-.986-.701-1.66 0-.676.229-1.225.688-1.648.477-.423 1.071-.634 1.782-.634.711 0 1.3.211 1.768.634.468.414.702.963.702 1.647 0 .675-.234 1.229-.702 1.66-.477.424-1.066.635-1.768.635s-1.292-.211-1.768-.634zm.311-1.66c0 .413.14.755.418 1.025.288.261.635.392 1.04.392.414 0 .76-.13 1.04-.392.278-.27.418-.612.418-1.026 0-.405-.14-.738-.418-.999a1.436 1.436 0 00-1.04-.405c-.414 0-.76.135-1.04.405a1.308 1.308 0 00-.418 1zm-4.522 2.348l-.635-.445L8.853.869l.621.46-6.925 9.26z"/></symbol><symbol viewBox="0 0 16 16" id="phone" xmlns="http://www.w3.org/2000/svg"><path fill-rule="evenodd" clip-rule="evenodd" d="M.977.042c-.496.12-.87.53-.96 1.05-.047.273.008 1.398.101 2.09.386 2.85 1.484 5.34 3.347 7.589.334.403 1.361 1.43 1.764 1.764 2.249 1.863 4.738 2.961 7.587 3.347.699.094 1.818.148 2.095.1a1.29 1.29 0 001.054-1c.023-.11.035-.692.035-1.736 0-1.674-.007-1.76-.158-2.057a1.405 1.405 0 00-.45-.482c-.24-.14-.392-.174-.908-.203-.972-.056-1.594-.155-2.376-.38-.398-.115-.462-.125-.722-.114-.252.011-.31.026-.492.121-.114.06-.63.428-1.145.82-.516.39-.948.71-.96.71-.042 0-.647-.352-1.012-.588-1.352-.878-2.382-1.982-3.221-3.456-.19-.333-.223-.411-.194-.458.02-.03.348-.469.73-.974.382-.504.727-.974.767-1.044.04-.07.094-.215.122-.325.065-.251.046-.416-.11-.971a9.481 9.481 0 01-.36-2.283C5.49 1.08 5.44.845 5.319.637A1.344 1.344 0 004.464.03C4.216-.017 1.176-.006.977.042z"/></symbol><symbol viewBox="0 0 23 25" id="play" xmlns="http://www.w3.org/2000/svg"><path d="M22.21 12.476L.895 24.783V.169L22.21 12.476z"/></symbol><symbol viewBox="0 0 12 11" id="plus" xmlns="http://www.w3.org/2000/svg"><path d="M4.934 6.65H.96V4.632h3.974V.573h2.16v4.06h4.061V6.65h-4.06v4.119h-2.16V6.649z"/></symbol><symbol viewBox="0 0 91 16" id="rating-stars" xmlns="http://www.w3.org/2000/svg"><path d="M7.53.418a.46.46 0 01.867 0l1.62 4.66a.46.46 0 00.425.309l4.933.1a.46.46 0 01.268.825l-3.932 2.982a.46.46 0 00-.162.498l1.429 4.723a.46.46 0 01-.702.51l-4.05-2.818a.459.459 0 00-.524 0l-4.05 2.818a.46.46 0 01-.703-.51l1.43-4.723a.46.46 0 00-.163-.498L.284 6.312a.46.46 0 01.268-.824l4.934-.101a.46.46 0 00.424-.308L7.53.418zM26.255.418a.46.46 0 01.867 0l1.62 4.66a.46.46 0 00.424.309l4.934.1a.46.46 0 01.268.825l-3.932 2.982a.459.459 0 00-.162.498l1.429 4.723a.46.46 0 01-.702.51l-4.05-2.818a.459.459 0 00-.525 0l-4.05 2.818a.459.459 0 01-.702-.51l1.429-4.723a.459.459 0 00-.162-.498l-3.932-2.982a.46.46 0 01.268-.824l4.933-.101a.459.459 0 00.424-.308l1.62-4.661zM44.98.418a.46.46 0 01.867 0l1.62 4.66a.46.46 0 00.424.309l4.934.1a.46.46 0 01.268.825L49.16 9.294a.459.459 0 00-.162.498l1.43 4.723a.459.459 0 01-.702.51l-4.05-2.818a.46.46 0 00-.525 0l-4.05 2.818a.459.459 0 01-.702-.51l1.429-4.723a.459.459 0 00-.162-.498l-3.933-2.982a.46.46 0 01.268-.824l4.934-.101a.459.459 0 00.424-.308L44.98.418zM63.704.418a.46.46 0 01.867 0l1.62 4.66a.46.46 0 00.425.309l4.933.1a.46.46 0 01.268.825l-3.932 2.982a.459.459 0 00-.162.498l1.429 4.723a.459.459 0 01-.702.51l-4.05-2.818a.46.46 0 00-.525 0l-4.05 2.818a.459.459 0 01-.702-.51l1.43-4.723a.459.459 0 00-.163-.498l-3.932-2.982a.46.46 0 01.268-.824l4.934-.101a.46.46 0 00.424-.308l1.62-4.661zM82.428.418a.46.46 0 01.868 0l1.62 4.66a.459.459 0 00.424.309l4.934.1a.46.46 0 01.268.825l-3.933 2.982a.459.459 0 00-.161.498l1.428 4.723a.459.459 0 01-.701.51l-4.05-2.818a.46.46 0 00-.525 0l-4.05 2.818a.459.459 0 01-.702-.51l1.429-4.723a.459.459 0 00-.162-.498l-3.932-2.982a.46.46 0 01.267-.824l4.934-.101a.46.46 0 00.424-.308l1.62-4.661z"/></symbol><symbol viewBox="0 0 40 40" id="search" xmlns="http://www.w3.org/2000/svg"><path fill-rule="evenodd" clip-rule="evenodd" d="M28.817 28.634c5.964-5.964 5.964-15.634 0-21.599-5.964-5.964-15.634-5.964-21.598 0-5.965 5.965-5.965 15.635 0 21.599 5.964 5.964 15.634 5.964 21.598 0zm1.733 1.733c6.921-6.922 6.921-18.143 0-25.065-6.921-6.921-18.143-6.921-25.065 0-6.92 6.922-6.92 18.143 0 25.065 6.922 6.921 18.144 6.921 25.065 0z"/><path fill-rule="evenodd" clip-rule="evenodd" d="M28.841 28.659a1.225 1.225 0 011.733 0l8.36 8.36a1.225 1.225 0 11-1.732 1.733l-8.36-8.36a1.225 1.225 0 010-1.733z"/></symbol><symbol viewBox="0 0 41 41" id="shopping-cart" xmlns="http://www.w3.org/2000/svg"><path fill-rule="evenodd" clip-rule="evenodd" d="M1.49 1.133c-.24.121-.49.52-.49.783 0 .255.223.673.436.816.191.129.452.15 2.238.186 1.907.038 2.04.05 2.35.22.439.24.836.66 1.055 1.118.099.207 1.486 4.425 3.081 9.373l2.902 8.998-.139.37c-.566 1.518-.549 1.443-.55 2.404-.002.753.03 1.013.177 1.45a4.427 4.427 0 003.076 2.894c.681.178 18.87.184 19.205.006.638-.34.628-1.279-.018-1.66-.131-.076-2.273-.107-9.56-.138l-9.39-.04-.417-.237c-.426-.242-.813-.663-1.064-1.158-.106-.208-.143-.463-.146-.997-.003-.614.028-.794.215-1.248.213-.514.229-.53.544-.577.178-.026 4.533-.496 9.676-1.046 5.144-.549 9.544-1.036 9.78-1.082a5.469 5.469 0 002.589-1.337c.509-.483 1.026-1.334 1.29-2.121.285-.855 2.422-10.253 2.375-10.447-.056-.23-.316-.502-.59-.616-.122-.05-5.755-.16-15.23-.297-8.27-.119-15.049-.231-15.065-.25-.016-.02-.213-.609-.438-1.31-.57-1.777-.782-2.202-1.434-2.878-.596-.62-1.36-1.059-2.12-1.22-.233-.05-1.21-.087-2.251-.086-1.511.001-1.884.024-2.086.127zM26.38 8.67c6.723.095 12.235.182 12.249.193.014.01-.432 1.951-.992 4.312-1.055 4.456-1.216 4.974-1.715 5.52a3.238 3.238 0 01-1.482.916c-.43.116-18.899 2.123-19.53 2.123h-.238l-1.182-3.688-2.135-6.669-.953-2.98 1.877.05c1.032.027 7.378.127 14.1.223zM12.797 32.303c-1.49.33-2.793 1.638-3.14 3.152-.337 1.467.063 2.907 1.104 3.976 1.065 1.095 2.448 1.505 3.891 1.156.719-.174 1.364-.56 1.957-1.169a4.19 4.19 0 001.17-3.523c-.194-1.394-1.066-2.621-2.302-3.242-.918-.46-1.714-.564-2.68-.35zm17.54 0c-.795.177-1.437.547-2.059 1.186-.839.861-1.198 1.748-1.2 2.958-.002 1.21.382 2.164 1.215 3.02 1.616 1.66 4.179 1.66 5.795 0 .832-.855 1.217-1.797 1.215-2.978-.002-1.254-.351-2.129-1.2-3-.632-.65-1.267-1.01-2.098-1.19-.66-.143-1.01-.142-1.668.004zm-15.644 2.062c.81.407 1.243 1.142 1.245 2.119.002.473-.036.673-.18.957-.272.54-.761 1.014-1.235 1.196-1.89.727-3.676-1.107-2.969-3.05.227-.622.84-1.185 1.553-1.425.36-.122 1.139-.022 1.586.203zm17.44-.054c.468.212.897.666 1.136 1.202.503 1.129.04 2.477-1.044 3.047-.54.283-1.529.283-2.069 0-1.27-.667-1.624-2.268-.78-3.525.565-.84 1.793-1.163 2.758-.724z"/></symbol><symbol viewBox="0 0 12 13" id="tiktok" xmlns="http://www.w3.org/2000/svg"><path d="M9.824 2.777C9.07 2.418 8.562 1.704 8.342.697l-.1-.458H6.27L6.256 4.45l-.014 4.213-.105.34c-.286.933-.783 1.366-1.606 1.4-.8.034-1.414-.337-1.79-1.082-.177-.35-.206-.908-.066-1.278.255-.677.75-1.02 1.854-1.286l.33-.08V4.644h-.194c-.283 0-.97.12-1.331.231C2 5.286.936 6.445.678 7.764c-.082.418-.035 1.4.088 1.854.218.8.726 1.612 1.286 2.055 1.401 1.11 3.182 1.082 4.634-.073.73-.58 1.244-1.426 1.47-2.414.09-.4.17-2.709.134-3.94-.015-.531-.017-.965-.004-.965.012 0 .238.11.5.246.752.387 1.405.57 2.035.57l.261.001V3.1h-.145c-.25 0-.727-.137-1.113-.322z"/></symbol><symbol viewBox="0 0 20 20" id="user-circle" xmlns="http://www.w3.org/2000/svg"><path fill-rule="evenodd" clip-rule="evenodd" d="M9.346 1.009l-.457.05c-1.16.126-2.445.562-3.481 1.18A9.09 9.09 0 002.23 5.417a9.153 9.153 0 00-1.187 3.481c-.057.431-.057 1.75 0 2.18a9.153 9.153 0 001.187 3.48 9.09 9.09 0 003.178 3.18 9.154 9.154 0 003.48 1.186c.432.057 1.75.057 2.18 0 2.19-.29 4.045-1.25 5.56-2.88a8.864 8.864 0 001.895-3.244c.317-.961.436-1.727.436-2.812 0-.803-.034-1.157-.178-1.863-.494-2.42-2.05-4.584-4.232-5.886a9.143 9.143 0 00-3.445-1.181c-.309-.04-1.54-.075-1.758-.05zm1.353 1.07c2.05.187 4.029 1.217 5.335 2.776a7.927 7.927 0 01.188 10.028c-.118.15-.222.273-.233.273-.01 0-.064-.153-.12-.34-.3-.997-.995-2.067-1.803-2.774a6.87 6.87 0 00-1.819-1.121l-.14-.057.122-.092c.22-.164.76-.732.89-.936.498-.777.708-1.616.62-2.475a3.77 3.77 0 00-2.02-2.987c-2.371-1.232-5.23.32-5.501 2.987-.07.693.063 1.423.372 2.037.25.495.666 1.007 1.072 1.317a.94.94 0 01.172.15c0 .01-.115.066-.255.122-.949.382-1.9 1.127-2.563 2.007a6.357 6.357 0 00-.928 1.826c-.056.185-.11.336-.12.336-.03 0-.43-.52-.63-.82a10.462 10.462 0 01-.772-1.494c-.272-.695-.443-1.5-.506-2.373-.18-2.519.953-5.08 2.95-6.672a7.985 7.985 0 015.69-1.719zm.018 3.022c.903.257 1.61.964 1.883 1.881.123.418.133 1.017.022 1.43a2.71 2.71 0 01-2.643 2.033 2.71 2.71 0 01-2.644-2.034 2.948 2.948 0 01.023-1.429c.308-1.041 1.11-1.746 2.234-1.964.204-.04.867.01 1.125.083zm-.018 6.508c1.09.14 2.055.626 2.886 1.454.628.627 1.02 1.26 1.274 2.06.09.283.234.95.208.964l-.237.183c-1.084.845-2.388 1.386-3.85 1.597-.407.059-1.595.059-2.003 0-1.461-.211-2.766-.752-3.85-1.597a14.41 14.41 0 00-.237-.183 5.155 5.155 0 013.422-4.247c.779-.27 1.517-.342 2.387-.23z"/></symbol><symbol viewBox="0 0 15 9" id="vk" xmlns="http://www.w3.org/2000/svg"><path d="M14.725 7.343a.84.84 0 00-.048-.081c-.248-.39-.72-.87-1.417-1.437l-.015-.013-.007-.006-.008-.007h-.007a8.063 8.063 0 01-.6-.533c-.154-.173-.189-.349-.105-.527.06-.134.282-.418.668-.851.203-.23.363-.414.482-.552.855-.997 1.226-1.634 1.112-1.911l-.044-.065c-.03-.04-.106-.075-.23-.108a1.329 1.329 0 00-.475-.016l-2.136.013a.315.315 0 00-.148.003l-.096.02-.038.016-.03.02a.436.436 0 00-.156.182 10.102 10.102 0 01-.792 1.462c-.183.269-.351.502-.505.699a3.467 3.467 0 01-.385.435 2.6 2.6 0 01-.282.225c-.084.056-.149.08-.193.071a6.023 6.023 0 01-.126-.026.46.46 0 01-.167-.16.65.65 0 01-.085-.253 2.46 2.46 0 01-.023-.575c.005-.134.008-.225.008-.273 0-.165.003-.343.01-.536.008-.193.014-.346.02-.458.004-.113.007-.232.007-.358 0-.126-.009-.224-.026-.296a.926.926 0 00-.078-.208.368.368 0 00-.152-.156.93.93 0 00-.248-.087A5.609 5.609 0 007.408.91c-.92-.009-1.51.043-1.773.156a.99.99 0 00-.281.195c-.09.095-.102.147-.038.156.297.039.507.132.63.28l.045.078c.035.056.07.156.104.299.035.143.057.3.067.474.025.316.025.587 0 .813-.025.225-.048.4-.07.526a.958.958 0 01-.1.306 1.251 1.251 0 01-.09.142.122.122 0 01-.037.033.626.626 0 01-.2.033.51.51 0 01-.252-.092 1.714 1.714 0 01-.308-.25 3.39 3.39 0 01-.36-.445 7.517 7.517 0 01-.415-.676l-.119-.189a15.54 15.54 0 01-.304-.53 9.623 9.623 0 01-.34-.672.44.44 0 00-.179-.208l-.037-.02a.875.875 0 00-.29-.097l-2.032.013c-.207 0-.348.041-.422.123l-.03.04c-.015.021-.022.056-.022.103 0 .048.015.107.044.176.297.61.62 1.2.968 1.768.349.568.652 1.025.909 1.371.257.347.519.674.786.982.267.308.444.505.53.591.087.087.155.152.204.195l.186.156c.118.104.293.229.523.374.23.145.484.288.764.43.279.14.604.255.975.344.37.088.732.124 1.083.107h.853c.173-.013.304-.06.393-.143l.03-.033a.404.404 0 00.055-.12.584.584 0 00.026-.179 1.885 1.885 0 01.048-.503c.037-.15.08-.262.126-.338a.846.846 0 01.286-.286.522.522 0 01.06-.023c.118-.035.258-.001.418.1.161.103.312.228.453.378.14.15.31.317.508.504.198.186.37.325.52.416l.147.078c.1.052.228.1.386.143a.943.943 0 00.415.032l1.9-.026a.962.962 0 00.437-.081c.104-.054.165-.114.185-.179a.443.443 0 00.004-.22.742.742 0 00-.052-.173z"/></symbol><symbol viewBox="0 0 30 26" id="wallet" xmlns="http://www.w3.org/2000/svg"><path fill-rule="evenodd" clip-rule="evenodd" d="M14.066 2.724L4.37 4.699l-.971.04c-.916.037-.99.049-1.311.205-.453.22-.848.62-1.073 1.09l-.182.381v17.349l.133.327c.187.458.66.95 1.14 1.184l.379.185h24.93l.379-.185c.48-.234.953-.726 1.14-1.184.132-.325.133-.342.15-3.133l.017-2.805.13-.033c.162-.04.517-.377.649-.617.089-.161.102-.405.117-2.256.01-1.317-.005-2.155-.043-2.294-.085-.313-.363-.667-.63-.801l-.228-.116-.001-2.67c0-2.045-.018-2.734-.077-2.95-.246-.913-1.017-1.584-1.9-1.655-.413-.032-.376.043-.479-.973-.071-.71-.13-.873-.398-1.096-.19-.158-.241-.17-.764-.174l-.339-.002-.133-.622c-.073-.342-.18-.685-.237-.763-.187-.254-.457-.396-.743-.389-.144.004-4.626.896-9.959 1.982zm10.068-.815l.112.536c.029.131.025.212-.01.212-.03 0-2.572.268-5.648.595-3.076.327-5.6.588-5.61.579-.008-.009 1.478-.318 3.303-.687 1.825-.37 4.28-.87 5.457-1.11 1.176-.242 2.182-.442 2.234-.445.073-.004.112.074.162.32zm1.6 1.469c.001.023.035.329.075.679.04.35.06.649.044.664-.015.015-2.917.024-6.45.02-3.53-.003-6.37-.019-6.307-.035.08-.02 11.676-1.279 12.563-1.364.04-.004.073.013.075.036zm1.679 2.324c.273.123.555.399.696.679.094.186.104.438.118 2.902l.016 2.699H26.814V9.644c0-2.873.08-2.635-.888-2.635h-1.837v.847H25.959v4.121l-2.078.017-2.077.016-.245.171c-.135.094-.324.28-.419.415l-.172.243v2.242c0 2.163.004 2.249.119 2.467.141.269.513.566.809.647.127.035.987.059 2.137.06h1.925v4.125H25.283v.848h.632c.582 0 .629-.009.76-.14l.14-.138v-4.696h1.43l-.016 2.699c-.016 2.662-.018 2.701-.143 2.933-.16.296-.52.604-.806.689-.318.094-24.34.094-24.657 0-.457-.136-.96-.76-.961-1.192v-.155H25.281v-.848H1.66V7.857l11.07-.014 11.358.013V7.01H1.66v-.132c0-.435.378-.974.823-1.174.224-.1.677-.105 12.467-.105 11.727 0 12.244.005 12.463.104zm1.48 7.162c.24.092.26.262.26 2.284v1.928l-.167.166-.167.165h-3.315c-3.503 0-3.576-.005-3.674-.257-.02-.05-.035-.98-.035-2.067v-1.976l.14-.139.14-.139h3.363c1.85 0 3.405.016 3.455.035zm-5.273 1c-.277.087-.7.523-.786.809-.18.599.024 1.2.519 1.53.994.663 2.315-.24 2.036-1.393-.187-.772-.977-1.194-1.769-.946zm.822.948c.194.228.188.416-.02.621-.177.177-.334.206-.535.1-.45-.238-.297-.895.21-.895.15 0 .232.041.345.174z"/></symbol><symbol viewBox="0 0 13 13" id="whatsapp" xmlns="http://www.w3.org/2000/svg"><path fill-rule="evenodd" clip-rule="evenodd" d="M10.472 2.055A6.031 6.031 0 006.188.287C2.85.287.133 2.991.132 6.314c0 1.062.278 2.099.808 3.013L.08 12.45l3.211-.838c.885.48 1.88.733 2.894.734h.003c3.338 0 6.055-2.704 6.056-6.027 0-1.61-.629-3.125-1.772-4.264zm-4.284 9.273h-.002a5.045 5.045 0 01-2.562-.698l-.184-.11-1.905.498.508-1.848-.12-.19a4.98 4.98 0 01-.769-2.666c.001-2.762 2.26-5.009 5.036-5.009 1.344 0 2.608.522 3.558 1.47a4.968 4.968 0 011.473 3.543c0 2.762-2.259 5.01-5.033 5.01zm2.76-3.752c-.15-.076-.895-.44-1.033-.49-.139-.05-.24-.075-.34.075-.102.151-.391.49-.48.59-.088.101-.176.114-.328.038-.151-.075-.639-.234-1.217-.747-.45-.4-.753-.893-.841-1.043-.089-.151-.001-.225.066-.308.164-.202.328-.414.378-.515.05-.1.026-.188-.012-.264-.038-.075-.34-.816-.467-1.118-.123-.293-.247-.254-.34-.258a6.077 6.077 0 00-.29-.006c-.101 0-.265.038-.404.189-.139.15-.53.515-.53 1.256 0 .742.543 1.458.618 1.558.076.1 1.067 1.622 2.585 2.274.361.155.643.248.863.317.363.115.692.099.953.06.29-.043.895-.364 1.022-.716.126-.352.126-.653.088-.716-.038-.063-.139-.1-.29-.176z"/></symbol><symbol viewBox="0 0 14 14" id="x" xmlns="http://www.w3.org/2000/svg"><path d="M5.571 6.666L.639 1.735 2.065.309l4.932 4.932L11.989.248l1.528 1.527-4.993 4.993 4.993 4.993-1.426 1.425-4.993-4.992-5.033 5.033L.538 11.7 5.57 6.666z"/></symbol><symbol viewBox="0 0 13 9" id="youtube" xmlns="http://www.w3.org/2000/svg"><path d="M12.056 1.86c-.133-.446-.523-.798-1.018-.918C10.134.719 6.517.719 6.517.719s-3.617 0-4.52.214c-.486.12-.886.481-1.02.928C.74 2.676.74 4.368.74 4.368s0 1.7.238 2.507c.133.446.523.798 1.018.918.914.224 4.521.224 4.521.224s3.617 0 4.521-.215c.495-.12.885-.472 1.019-.919.238-.815.238-2.507.238-2.507s.01-1.7-.239-2.515zm-6.69 4.07V2.805l3.007 1.563L5.366 5.93z"/></symbol></svg>